<svg xmlns="http://www.w3.org/2000/svg" viewBox="0 0 100 80">
  <g fill="none" stroke="#7fa6c3" stroke-linejoin="round" stroke-linecap="round">
    <!-- Iso pääsaari / niemeke vasemmalla -->
    <path stroke-width="1.3"
      d="M3,18 C6,8 16,5 24,9 C30,12 34,6 41,9
         C47,12 49,20 47,27 C45,32 40,33 38,28
         C36,23 33,26 29,31 C25,36 23,44 28,49
         C32,53 30,60 22,60 C14,60 5,53 2,44
         C-1,34 0,28 3,18 Z"/>
    <!-- Iso saari oikealla yläosassa -->
    <path stroke-width="1.2"
      d="M54,7 C59,2 68,5 70,12
         C72,19 68,25 61,23
         C54,21 50,14 54,7 Z"/>
    <!-- Niemeke / pitkä saari oikealla keskellä -->
    <path stroke-width="1.1"
      d="M54,30 C58,25 66,27 68,34
         C70,41 65,48 59,46
         C53,44 50,37 54,30 Z"/>
    <!-- Pieni saari oikealla ylhäällä -->
    <path stroke-width="0.9"
      d="M73,14 C76,11 80,13 81,18
         C82,23 78,26 74,24
         C70,22 70,17 73,14 Z"/>
    <!-- Saari oikealla alhaalla -->
    <path stroke-width="1.0"
      d="M61,54 C65,49 72,52 73,58
         C74,64 69,68 63,66
         C57,64 57,59 61,54 Z"/>
    <!-- Pieni saari oikealla kesk-ala -->
    <path stroke-width="0.9"
      d="M76,40 C79,36 84,39 84,44
         C84,49 80,52 76,50
         C72,48 73,44 76,40 Z"/>
    <!-- Pieniä saaria vasemmalla alhaalla -->
    <path stroke-width="0.85"
      d="M46,58 C49,54 54,56 55,61
         C56,66 52,69 47,67
         C42,65 43,62 46,58 Z"/>
    <path stroke-width="0.8"
      d="M37,65 C39,62 43,63 43,67
         C43,71 40,73 37,71
         C34,69 35,68 37,65 Z"/>
    <!-- Pieniä pisteitä / saaria -->
    <path stroke-width="0.75"
      d="M84,26 C86,24 89,25 89,28
         C89,31 86,32 84,30
         C82,28 82,28 84,26 Z"/>
    <path stroke-width="0.75"
      d="M27,63 C29,61 32,62 32,65
         C32,68 29,69 27,67
         C25,65 25,65 27,63 Z"/>
    <!-- Salmet / vesireitit -->
    <path stroke-width="0.7"
      d="M48,24 C52,20 54,18 56,18"/>
    <path stroke-width="0.7"
      d="M29,54 C36,53 42,55 46,58"/>
  </g>
</svg>
