<svg xmlns="http://www.w3.org/2000/svg" viewBox="0 0 537 382">
  <g fill="none" stroke="#8ab5cc" stroke-width="1.6" stroke-linejoin="round" stroke-linecap="round" opacity="0.92">
  <polyline points="0,40 9,39 10,43 13,43 14,46 16,46"/>
  <polyline points="17,45 17,46"/>
  <polyline points="18,38 18,39"/>
  <polyline points="18,44 18,46"/>
  <polyline points="19,39 19,40"/>
  <polyline points="19,43 19,45"/>
  <polyline points="20,39 20,44"/>
  <polyline points="0,82 5,82 6,84 7,83 8,85 11,85 11,88 12,86 15,92 16,91 16,94 17,93 18,95 19,93 19,96"/>
  <polyline points="20,93 20,99 21,98 22,100 23,99 28,103 30,102 30,104 31,103 33,107 35,107 36,105 37,107 39,105 39,107 41,104 41,106 42,104 43,106 44,104 44,106 48,105 52,108 54,107 55,109 57,108 59,110"/>
  <polyline points="59,129 59,131"/>
  <polyline points="60,110 60,111"/>
  <polyline points="60,128 60,133"/>
  <polyline points="61,111 61,112"/>
  <polyline points="61,128 61,129"/>
  <polyline points="61,132 61,134"/>
  <polyline points="62,112 62,113"/>
  <polyline points="62,128 62,129"/>
  <polyline points="62,133 62,135"/>
  <polyline points="63,113 63,115"/>
  <polyline points="63,128 63,129"/>
  <polyline points="63,134 63,135"/>
  <polyline points="64,114 64,118"/>
  <polyline points="64,127 64,129"/>
  <polyline points="64,135 64,137"/>
  <polyline points="65,116 65,120"/>
  <polyline points="65,126 65,128"/>
  <polyline points="65,136 65,143"/>
  <polyline points="66,119 66,122"/>
  <polyline points="66,125 66,127"/>
  <polyline points="66,138 66,145"/>
  <polyline points="67,122 67,127"/>
  <polyline points="67,144 67,146"/>
  <polyline points="68,125 68,127"/>
  <polyline points="68,145 75,152 76,150 76,152"/>
  <polyline points="77,140 77,142"/>
  <polyline points="77,145 77,152"/>
  <polyline points="78,140 78,145 79,143 85,143 87,145 89,144 90,146"/>
  <polyline points="90,159 90,163"/>
  <polyline points="91,146 91,147"/>
  <polyline points="91,159 91,164"/>
  <polyline points="92,147 92,148"/>
  <polyline points="92,158 92,159"/>
  <polyline points="92,163 92,165"/>
  <polyline points="93,148 93,159"/>
  <polyline points="93,164 93,166 96,165 99,168 99,170 100,169 100,171 101,170 101,172 102,171 102,173 104,175 105,174 106,177 107,176 108,180 112,180 113,178 119,178 120,180"/>
  <polyline points="120,194 120,200"/>
  <polyline points="121,180 121,184"/>
  <polyline points="121,193 121,202"/>
  <polyline points="122,181 122,185"/>
  <polyline points="122,192 122,194"/>
  <polyline points="122,201 122,202"/>
  <polyline points="123,185 123,186"/>
  <polyline points="123,191 123,193"/>
  <polyline points="123,202 123,203"/>
  <polyline points="124,185 124,192"/>
  <polyline points="124,203 124,204"/>
  <polyline points="125,185 125,189"/>
  <polyline points="125,203 125,205"/>
  <polyline points="126,186 126,187"/>
  <polyline points="126,204 132,205 137,200 140,200 141,202 148,202"/>
  <polyline points="26,342 26,344"/>
  <polyline points="27,339 27,344"/>
  <polyline points="28,339 28,341"/>
  <polyline points="28,344 28,345"/>
  <polyline points="29,337 29,339"/>
  <polyline points="29,344 29,345"/>
  <polyline points="30,335 30,338"/>
  <polyline points="30,344 30,345"/>
  <polyline points="31,344 31,345"/>
  <polyline points="32,344 32,345"/>
  <polyline points="33,335 33,336"/>
  <polyline points="33,344 33,345"/>
  <polyline points="34,335 34,336"/>
  <polyline points="34,344 34,345"/>
  <polyline points="35,335 35,336"/>
  <polyline points="36,335 36,336"/>
  <polyline points="37,335 37,336"/>
  <polyline points="37,343 37,344"/>
  <polyline points="38,335 38,336"/>
  <polyline points="38,343 38,344"/>
  <polyline points="39,335 39,336"/>
  <polyline points="39,343 39,344"/>
  <polyline points="40,334 40,335"/>
  <polyline points="40,343 40,344"/>
  <polyline points="41,334 41,335"/>
  <polyline points="41,343 41,344"/>
  <polyline points="42,334 42,335"/>
  <polyline points="42,343 42,344"/>
  <polyline points="43,334 43,335"/>
  <polyline points="43,343 43,344"/>
  <polyline points="44,334 44,335"/>
  <polyline points="44,343 44,344"/>
  <polyline points="45,334 45,335"/>
  <polyline points="45,343 45,344"/>
  <polyline points="46,333 46,334"/>
  <polyline points="46,343 46,344"/>
  <polyline points="47,333 47,334"/>
  <polyline points="48,333 48,334"/>
  <polyline points="49,333 49,334"/>
  <polyline points="50,334 50,335"/>
  <polyline points="51,334 51,335"/>
  <polyline points="51,343 51,344"/>
  <polyline points="52,343 52,344"/>
  <polyline points="53,344 53,345"/>
  <polyline points="54,335 54,336"/>
  <polyline points="54,345 54,346"/>
  <polyline points="55,335 55,336"/>
  <polyline points="55,345 55,347"/>
  <polyline points="56,335 56,336"/>
  <polyline points="56,346 56,347"/>
  <polyline points="57,335 57,336"/>
  <polyline points="57,347 57,348"/>
  <polyline points="58,335 58,336"/>
  <polyline points="58,347 58,348"/>
  <polyline points="59,335 59,336"/>
  <polyline points="59,348 59,349"/>
  <polyline points="60,335 60,336"/>
  <polyline points="60,348 60,350"/>
  <polyline points="61,335 61,336"/>
  <polyline points="61,349 61,350"/>
  <polyline points="61,355 61,358"/>
  <polyline points="62,335 62,336"/>
  <polyline points="62,351 62,360"/>
  <polyline points="63,335 63,336"/>
  <polyline points="63,359 63,361"/>
  <polyline points="64,335 64,336"/>
  <polyline points="64,360 64,361"/>
  <polyline points="65,359 65,360"/>
  <polyline points="66,334 66,335"/>
  <polyline points="66,358 66,359"/>
  <polyline points="67,334 67,335"/>
  <polyline points="67,357 67,358"/>
  <polyline points="67,380 67,381"/>
  <polyline points="68,334 68,335"/>
  <polyline points="68,357 68,358"/>
  <polyline points="68,372 68,380"/>
  <polyline points="69,334 69,335"/>
  <polyline points="69,370 69,379"/>
  <polyline points="70,334 70,335"/>
  <polyline points="70,357 70,360"/>
  <polyline points="70,369 70,371"/>
  <polyline points="71,334 71,335"/>
  <polyline points="71,356 71,364"/>
  <polyline points="71,368 71,369"/>
  <polyline points="72,334 72,335"/>
  <polyline points="72,355 72,365"/>
  <polyline points="73,333 73,334"/>
  <polyline points="73,355 73,357"/>
  <polyline points="73,365 73,368"/>
  <polyline points="74,333 74,334"/>
  <polyline points="74,355 74,357"/>
  <polyline points="74,365 74,368"/>
  <polyline points="75,333 75,334"/>
  <polyline points="75,355 75,357"/>
  <polyline points="75,366 75,368"/>
  <polyline points="76,332 76,333"/>
  <polyline points="76,355 76,356"/>
  <polyline points="76,366 76,367"/>
  <polyline points="77,333 81,333"/>
  <polyline points="82,326 82,329"/>
  <polyline points="82,332 82,334"/>
  <polyline points="83,326 83,333"/>
  <polyline points="84,322 84,323"/>
  <polyline points="84,326 84,328"/>
  <polyline points="85,321 85,328"/>
  <polyline points="86,320 86,321"/>
  <polyline points="86,324 86,327"/>
  <polyline points="87,320 89,318 94,319"/>
  <polyline points="94,323 94,325"/>
  <polyline points="95,318 95,325"/>
  <polyline points="96,319 96,322"/>
  <polyline points="96,325 104,325 105,323 105,325"/>
  <polyline points="106,310 106,312"/>
  <polyline points="106,323 106,324"/>
  <polyline points="107,308 107,313"/>
  <polyline points="107,323 107,324"/>
  <polyline points="108,303 108,308"/>
  <polyline points="108,313 108,314"/>
  <polyline points="108,322 108,324"/>
  <polyline points="109,313 109,314"/>
  <polyline points="109,322 109,323"/>
  <polyline points="110,313 110,314"/>
  <polyline points="111,313 111,314"/>
  <polyline points="111,321 111,322"/>
  <polyline points="112,313 112,314"/>
  <polyline points="112,320 112,321"/>
  <polyline points="113,314 113,316"/>
  <polyline points="113,320 113,321"/>
  <polyline points="114,316 114,320"/>
  <polyline points="115,317 115,319"/>
  <polyline points="31,38 35,46 41,45 42,47 43,46 43,48 44,47 44,49 45,48 46,50 48,49 48,51 51,51 52,58"/>
  <polyline points="53,53 53,62"/>
  <polyline points="54,54 54,55"/>
  <polyline points="54,59 54,62 55,60 56,62 56,67"/>
  <polyline points="57,62 57,67"/>
  <polyline points="58,63 58,68"/>
  <polyline points="59,64 59,68"/>
  <polyline points="60,65 63,65 63,67 64,66 64,68 65,67 67,71 70,70 71,72 73,71 73,73 74,72 76,75 78,74 78,81"/>
  <polyline points="79,76 79,81 80,79 84,79 84,82 85,80 86,83 88,81 89,83 90,82 90,84 91,83 91,85 94,86 95,84 95,86 97,83 97,85 98,83 98,85 100,83 100,85 103,85 103,88 109,88 110,91 112,91 112,93 113,92 116,96 117,95 117,97 118,96 118,98 119,97 119,99 120,97 121,99 124,98"/>
  <polyline points="125,90 125,93"/>
  <polyline points="125,98 125,100"/>
  <polyline points="126,89 126,94"/>
  <polyline points="126,98 126,100"/>
  <polyline points="127,93 127,94"/>
  <polyline points="127,98 127,100"/>
  <polyline points="128,89 128,90"/>
  <polyline points="128,94 128,95"/>
  <polyline points="128,99 128,101"/>
  <polyline points="129,89 129,91"/>
  <polyline points="129,95 129,101"/>
  <polyline points="130,91 130,92"/>
  <polyline points="130,97 130,102"/>
  <polyline points="131,91 131,92"/>
  <polyline points="131,98 131,99"/>
  <polyline points="132,91 133,93 136,93 136,97 137,95 137,100 138,98 139,104 142,104 142,106 144,106 144,109 146,109 148,113 153,113 153,115 155,114 156,116 157,115 162,119 164,118"/>
  <polyline points="165,96 165,101"/>
  <polyline points="165,117 165,118"/>
  <polyline points="166,97 166,98"/>
  <polyline points="166,101 166,103"/>
  <polyline points="166,117 166,119"/>
  <polyline points="167,97 167,98"/>
  <polyline points="167,102 167,104"/>
  <polyline points="167,118 167,121"/>
  <polyline points="168,97 168,98"/>
  <polyline points="168,103 168,106"/>
  <polyline points="168,120 168,122"/>
  <polyline points="169,97 169,98"/>
  <polyline points="169,106 169,108"/>
  <polyline points="169,121 169,122"/>
  <polyline points="170,97 170,98"/>
  <polyline points="170,108 170,109"/>
  <polyline points="171,98 171,99"/>
  <polyline points="171,109 171,110"/>
  <polyline points="171,121 171,122"/>
  <polyline points="172,99 172,100"/>
  <polyline points="172,110 172,111"/>
  <polyline points="172,121 172,122"/>
  <polyline points="173,100 173,101"/>
  <polyline points="173,111 173,112"/>
  <polyline points="173,121 173,122"/>
  <polyline points="174,100 174,102"/>
  <polyline points="174,112 174,113"/>
  <polyline points="174,121 174,122"/>
  <polyline points="175,102 175,104"/>
  <polyline points="175,113 175,115"/>
  <polyline points="175,121 175,122"/>
  <polyline points="176,87 176,88"/>
  <polyline points="176,103 176,104"/>
  <polyline points="176,114 176,116"/>
  <polyline points="176,121 176,122"/>
  <polyline points="177,88 177,89"/>
  <polyline points="177,98 177,99"/>
  <polyline points="177,103 177,104"/>
  <polyline points="177,115 177,122"/>
  <polyline points="178,89 178,91"/>
  <polyline points="178,95 178,100"/>
  <polyline points="178,103 178,104"/>
  <polyline points="178,116 178,122"/>
  <polyline points="179,90 179,105"/>
  <polyline points="179,119 179,122"/>
  <polyline points="180,93 180,94"/>
  <polyline points="180,101 180,106"/>
  <polyline points="180,120 180,122"/>
  <polyline points="181,102 181,104"/>
  <polyline points="74,381 77,381 84,374 84,376"/>
  <polyline points="85,373 85,375 88,371 90,372 91,370 92,371 94,368 95,369 100,365 105,365 111,360 111,362"/>
  <polyline points="112,359 112,361"/>
  <polyline points="113,357 113,359"/>
  <polyline points="114,356 125,354 125,356 126,355 130,360 136,356 142,356"/>
  <polyline points="90,94 90,96 92,94 93,97"/>
  <polyline points="95,104 95,105"/>
  <polyline points="96,98 96,106"/>
  <polyline points="97,97 97,103"/>
  <polyline points="97,106 97,107"/>
  <polyline points="98,97 98,98"/>
  <polyline points="98,107 98,108"/>
  <polyline points="99,96 99,97"/>
  <polyline points="99,107 99,109"/>
  <polyline points="100,96 100,97"/>
  <polyline points="100,108 100,109"/>
  <polyline points="101,96 101,97"/>
  <polyline points="101,109 101,110"/>
  <polyline points="102,96 102,97"/>
  <polyline points="102,110 102,111"/>
  <polyline points="103,96 103,97"/>
  <polyline points="103,110 103,112"/>
  <polyline points="104,96 104,97"/>
  <polyline points="104,111 104,113"/>
  <polyline points="105,96 105,97"/>
  <polyline points="105,112 105,114"/>
  <polyline points="106,96 106,98"/>
  <polyline points="106,113 106,115"/>
  <polyline points="107,97 107,98"/>
  <polyline points="108,97 108,98"/>
  <polyline points="109,98 109,99"/>
  <polyline points="109,115 109,116"/>
  <polyline points="110,98 110,100"/>
  <polyline points="110,116 110,117"/>
  <polyline points="111,99 111,100"/>
  <polyline points="111,117 111,118"/>
  <polyline points="112,100 112,101"/>
  <polyline points="112,117 112,118"/>
  <polyline points="113,100 113,102"/>
  <polyline points="113,117 113,118"/>
  <polyline points="114,101 114,102"/>
  <polyline points="114,118 114,119"/>
  <polyline points="115,102 115,104"/>
  <polyline points="115,118 115,119"/>
  <polyline points="116,103 116,105"/>
  <polyline points="116,118 116,119"/>
  <polyline points="117,104 117,106"/>
  <polyline points="117,118 117,119"/>
  <polyline points="118,119 118,120"/>
  <polyline points="119,106 119,107"/>
  <polyline points="119,119 119,120"/>
  <polyline points="120,106 120,107"/>
  <polyline points="120,119 120,120"/>
  <polyline points="121,107 121,108"/>
  <polyline points="121,120 121,121"/>
  <polyline points="122,107 122,108"/>
  <polyline points="122,121 122,122"/>
  <polyline points="123,108 123,109"/>
  <polyline points="123,121 123,123"/>
  <polyline points="124,109 124,110"/>
  <polyline points="124,122 124,123"/>
  <polyline points="125,110 125,112"/>
  <polyline points="125,122 125,123"/>
  <polyline points="126,111 126,113"/>
  <polyline points="126,120 126,122"/>
  <polyline points="127,112 127,115"/>
  <polyline points="127,120 127,121"/>
  <polyline points="128,113 128,120"/>
  <polyline points="129,116 129,119"/>
  <polyline points="110,302 111,301 111,303 112,301 118,301 119,304 120,302 121,304"/>
  <polyline points="122,36 122,59"/>
  <polyline points="123,36 123,60"/>
  <polyline points="124,36 124,61"/>
  <polyline points="125,36 125,60"/>
  <polyline points="126,36 126,59"/>
  <polyline points="127,36 140,36"/>
  <polyline points="125,302 126,301 126,303"/>
  <polyline points="127,300 127,302"/>
  <polyline points="128,299 128,301"/>
  <polyline points="129,298 129,300 132,296 132,298 133,297"/>
  <polyline points="134,294 134,296"/>
  <polyline points="135,292 135,294"/>
  <polyline points="136,291 136,293 138,290 138,292"/>
  <polyline points="139,287 139,291"/>
  <polyline points="140,287 140,291"/>
  <polyline points="141,287 141,289 144,285 144,287 145,285 148,286 150,284"/>
  <polyline points="151,218 151,222"/>
  <polyline points="151,283 151,284"/>
  <polyline points="152,217 152,224"/>
  <polyline points="152,282 152,283"/>
  <polyline points="153,203 153,204"/>
  <polyline points="153,216 153,218"/>
  <polyline points="153,223 153,225"/>
  <polyline points="153,282 153,283"/>
  <polyline points="154,203 154,204"/>
  <polyline points="154,215 154,216"/>
  <polyline points="154,224 154,225"/>
  <polyline points="154,282 154,283"/>
  <polyline points="155,204 155,205"/>
  <polyline points="155,214 155,215"/>
  <polyline points="155,225 155,226"/>
  <polyline points="155,282 155,283"/>
  <polyline points="156,204 156,206"/>
  <polyline points="156,213 156,215"/>
  <polyline points="156,225 156,226"/>
  <polyline points="156,281 156,282"/>
  <polyline points="157,205 157,206"/>
  <polyline points="157,212 157,214"/>
  <polyline points="157,224 157,226"/>
  <polyline points="157,280 157,281"/>
  <polyline points="158,206 158,207"/>
  <polyline points="158,224 158,225"/>
  <polyline points="158,260 158,261"/>
  <polyline points="158,279 158,280"/>
  <polyline points="159,207 159,208"/>
  <polyline points="159,212 159,213"/>
  <polyline points="159,223 159,224"/>
  <polyline points="159,257 159,263"/>
  <polyline points="159,278 159,280"/>
  <polyline points="160,207 160,208"/>
  <polyline points="160,211 160,212"/>
  <polyline points="160,222 160,223"/>
  <polyline points="160,257 160,258"/>
  <polyline points="160,262 160,264"/>
  <polyline points="160,276 160,278"/>
  <polyline points="161,207 161,208"/>
  <polyline points="161,211 161,212"/>
  <polyline points="161,222 161,223"/>
  <polyline points="161,255 161,257"/>
  <polyline points="161,264 161,267"/>
  <polyline points="161,275 161,276"/>
  <polyline points="162,207 162,212"/>
  <polyline points="162,223 162,224"/>
  <polyline points="162,255 162,256"/>
  <polyline points="162,265 162,267"/>
  <polyline points="162,273 162,275"/>
  <polyline points="163,207 163,212"/>
  <polyline points="163,223 163,224"/>
  <polyline points="163,254 163,255"/>
  <polyline points="163,273 163,274"/>
  <polyline points="164,207 164,211"/>
  <polyline points="164,222 164,223"/>
  <polyline points="164,253 164,254"/>
  <polyline points="164,263 164,267"/>
  <polyline points="164,273 164,274"/>
  <polyline points="165,208 165,210"/>
  <polyline points="165,222 165,223"/>
  <polyline points="165,253 165,254"/>
  <polyline points="165,261 165,267"/>
  <polyline points="165,273 165,274"/>
  <polyline points="166,253 166,254"/>
  <polyline points="166,261 166,262"/>
  <polyline points="166,265 166,267"/>
  <polyline points="166,273 166,274"/>
  <polyline points="167,222 167,223"/>
  <polyline points="167,233 167,235"/>
  <polyline points="167,252 167,253"/>
  <polyline points="167,260 167,267"/>
  <polyline points="167,273 167,274"/>
  <polyline points="168,223 168,224"/>
  <polyline points="168,232 168,236"/>
  <polyline points="168,252 168,253"/>
  <polyline points="168,260 168,267"/>
  <polyline points="168,272 168,273"/>
  <polyline points="169,223 169,225"/>
  <polyline points="169,232 169,233"/>
  <polyline points="169,236 169,242"/>
  <polyline points="169,251 169,252"/>
  <polyline points="169,260 169,268"/>
  <polyline points="169,272 169,273"/>
  <polyline points="170,224 170,225"/>
  <polyline points="170,228 170,233"/>
  <polyline points="170,237 170,243"/>
  <polyline points="170,251 170,252"/>
  <polyline points="170,264 170,269"/>
  <polyline points="171,225 171,230"/>
  <polyline points="171,243 171,244"/>
  <polyline points="171,250 171,251"/>
  <polyline points="171,265 171,269"/>
  <polyline points="171,272 171,273"/>
  <polyline points="172,226 172,227"/>
  <polyline points="172,244 172,250"/>
  <polyline points="172,265 172,269"/>
  <polyline points="173,245 173,250"/>
  <polyline points="173,264 173,272"/>
  <polyline points="174,247 174,249"/>
  <polyline points="174,264 174,265"/>
  <polyline points="174,269 174,271"/>
  <polyline points="175,246 175,249"/>
  <polyline points="176,246 176,249"/>
  <polyline points="177,246 178,248"/>
  <polyline points="127,340 127,347"/>
  <polyline points="128,339 128,348"/>
  <polyline points="129,337 129,339"/>
  <polyline points="129,347 129,348"/>
  <polyline points="130,337 130,338"/>
  <polyline points="130,347 130,348"/>
  <polyline points="131,335 131,337"/>
  <polyline points="131,347 131,348"/>
  <polyline points="132,335 132,336"/>
  <polyline points="133,335 133,336"/>
  <polyline points="133,347 133,350"/>
  <polyline points="134,335 134,336"/>
  <polyline points="134,346 134,351"/>
  <polyline points="135,336 135,339"/>
  <polyline points="135,346 135,350"/>
  <polyline points="136,336 136,339"/>
  <polyline points="136,345 136,348"/>
  <polyline points="137,337 137,338"/>
  <polyline points="137,344 137,346"/>
  <polyline points="138,336 138,337"/>
  <polyline points="138,343 138,345"/>
  <polyline points="139,336 139,343"/>
  <polyline points="140,336 140,339 141,338"/>
  <polyline points="145,299 145,301 146,299 146,301 147,299 147,301 148,299 149,301"/>
  <polyline points="145,355 164,355"/>
  <polyline points="157,36 157,58"/>
  <polyline points="158,36 158,60"/>
  <polyline points="159,36 159,60"/>
  <polyline points="160,36 160,60"/>
  <polyline points="161,36 161,60"/>
  <polyline points="164,72 164,74"/>
  <polyline points="165,66 165,77"/>
  <polyline points="166,64 166,67"/>
  <polyline points="166,77 166,78"/>
  <polyline points="167,63 167,66"/>
  <polyline points="167,78 167,81"/>
  <polyline points="168,62 168,63"/>
  <polyline points="168,79 168,82"/>
  <polyline points="169,61 169,62"/>
  <polyline points="169,82 169,83"/>
  <polyline points="170,61 170,62"/>
  <polyline points="170,83 170,84"/>
  <polyline points="171,61 171,62"/>
  <polyline points="171,84 171,85"/>
  <polyline points="172,60 172,61"/>
  <polyline points="172,84 172,86"/>
  <polyline points="173,60 173,61"/>
  <polyline points="173,85 173,87"/>
  <polyline points="174,60 174,61"/>
  <polyline points="174,86 174,87"/>
  <polyline points="175,61 175,62"/>
  <polyline points="166,353 169,353 171,351 172,353 175,353 176,355 177,354 178,357 181,357 181,359 182,357 182,359 185,358"/>
  <polyline points="170,40 170,47"/>
  <polyline points="171,37 171,51"/>
  <polyline points="172,36 172,53"/>
  <polyline points="173,36 173,54"/>
  <polyline points="174,36 174,55"/>
  <polyline points="175,36 175,39"/>
  <polyline points="175,49 175,56"/>
  <polyline points="176,36 176,37"/>
  <polyline points="176,51 176,57"/>
  <polyline points="177,52 177,58"/>
  <polyline points="177,61 177,62"/>
  <polyline points="178,53 178,58"/>
  <polyline points="178,61 178,62"/>
  <polyline points="179,54 179,62"/>
  <polyline points="180,55 180,62"/>
  <polyline points="180,78 180,81"/>
  <polyline points="181,55 181,61"/>
  <polyline points="181,74 181,83"/>
  <polyline points="182,56 182,61"/>
  <polyline points="182,73 182,75"/>
  <polyline points="182,83 182,84"/>
  <polyline points="183,56 183,61"/>
  <polyline points="183,64 183,73"/>
  <polyline points="183,84 183,86"/>
  <polyline points="183,92 183,94"/>
  <polyline points="184,56 184,72"/>
  <polyline points="184,85 184,96"/>
  <polyline points="185,56 185,63"/>
  <polyline points="185,95 185,100"/>
  <polyline points="186,56 186,63"/>
  <polyline points="187,56 187,64"/>
  <polyline points="188,56 188,64"/>
  <polyline points="189,55 189,60"/>
  <polyline points="189,64 189,65"/>
  <polyline points="190,54 190,60"/>
  <polyline points="190,64 190,65"/>
  <polyline points="191,54 191,60"/>
  <polyline points="191,64 191,65"/>
  <polyline points="192,54 192,60"/>
  <polyline points="192,64 192,65"/>
  <polyline points="193,54 193,60"/>
  <polyline points="193,63 193,64"/>
  <polyline points="194,54 194,63"/>
  <polyline points="195,53 195,62"/>
  <polyline points="196,52 196,58"/>
  <polyline points="197,36 197,37"/>
  <polyline points="197,51 197,57"/>
  <polyline points="198,36 198,39"/>
  <polyline points="198,48 198,56"/>
  <polyline points="199,36 199,59"/>
  <polyline points="200,36 200,60"/>
  <polyline points="201,36 201,61"/>
  <polyline points="202,36 202,60"/>
  <polyline points="203,36 203,59"/>
  <polyline points="176,261 176,263 177,261 178,263"/>
  <polyline points="181,232 181,235"/>
  <polyline points="182,232 182,237"/>
  <polyline points="183,233 183,238"/>
  <polyline points="184,237 184,238"/>
  <polyline points="186,234 186,235"/>
  <polyline points="187,234 187,238"/>
  <polyline points="188,235 188,238"/>
  <polyline points="185,103 186,108 187,107 188,111 189,110 191,115 193,115 193,118"/>
  <polyline points="194,117 194,122"/>
  <polyline points="195,119 195,123 196,122 198,129 199,127 199,129 201,127 206,127 206,129 208,129 209,127 209,129 210,127 215,127 215,129 221,128 222,130 224,129 228,132 237,129 238,132 242,130 244,132 245,131 245,133 246,132 247,134 252,134 252,136 253,135 253,137 254,136 254,138 255,137 256,139 261,139 261,141 265,141 268,144 274,144 281,150 283,150 284,148 288,149 289,147 294,147"/>
  <polyline points="294,161 294,165"/>
  <polyline points="295,150 295,152"/>
  <polyline points="295,160 295,165"/>
  <polyline points="296,125 296,127"/>
  <polyline points="296,133 296,136"/>
  <polyline points="296,145 296,161"/>
  <polyline points="296,164 296,165"/>
  <polyline points="297,124 297,137"/>
  <polyline points="297,144 297,149"/>
  <polyline points="297,153 297,159"/>
  <polyline points="297,164 297,165"/>
  <polyline points="298,123 298,124"/>
  <polyline points="298,128 298,132"/>
  <polyline points="298,135 298,138"/>
  <polyline points="298,144 298,149"/>
  <polyline points="298,165 298,167"/>
  <polyline points="299,129 299,132"/>
  <polyline points="299,137 299,139"/>
  <polyline points="299,143 299,144"/>
  <polyline points="299,148 299,150"/>
  <polyline points="299,165 299,168"/>
  <polyline points="300,129 300,133"/>
  <polyline points="300,138 300,140"/>
  <polyline points="300,143 300,144"/>
  <polyline points="300,149 300,151"/>
  <polyline points="300,168 300,170"/>
  <polyline points="301,122 301,123"/>
  <polyline points="301,128 301,133"/>
  <polyline points="301,139 301,140"/>
  <polyline points="301,143 301,144"/>
  <polyline points="301,150 301,151"/>
  <polyline points="301,170 301,171"/>
  <polyline points="302,122 302,123"/>
  <polyline points="302,129 302,132"/>
  <polyline points="302,139 302,140"/>
  <polyline points="302,143 302,144"/>
  <polyline points="302,170 302,171"/>
  <polyline points="303,138 303,140"/>
  <polyline points="303,143 303,144"/>
  <polyline points="303,171 303,172"/>
  <polyline points="304,137 304,139"/>
  <polyline points="304,143 304,144"/>
  <polyline points="304,151 304,152"/>
  <polyline points="305,123 305,124"/>
  <polyline points="305,137 305,138"/>
  <polyline points="305,143 305,144"/>
  <polyline points="305,152 305,153"/>
  <polyline points="305,172 305,173"/>
  <polyline points="306,123 306,124"/>
  <polyline points="306,137 306,138"/>
  <polyline points="306,142 306,143"/>
  <polyline points="306,152 306,153"/>
  <polyline points="306,172 306,174"/>
  <polyline points="307,123 307,124"/>
  <polyline points="307,137 307,142"/>
  <polyline points="307,152 307,153"/>
  <polyline points="307,173 307,174"/>
  <polyline points="308,123 308,124"/>
  <polyline points="308,137 308,142"/>
  <polyline points="308,152 308,154"/>
  <polyline points="308,173 308,175"/>
  <polyline points="309,124 309,125"/>
  <polyline points="309,153 309,155"/>
  <polyline points="309,174 309,176"/>
  <polyline points="310,125 310,126"/>
  <polyline points="310,154 310,155"/>
  <polyline points="310,176 310,177"/>
  <polyline points="311,125 311,127"/>
  <polyline points="311,155 311,156"/>
  <polyline points="311,177 311,178"/>
  <polyline points="312,80 312,81"/>
  <polyline points="312,126 312,127"/>
  <polyline points="312,178 312,180"/>
  <polyline points="313,80 313,81"/>
  <polyline points="313,126 313,127"/>
  <polyline points="313,156 313,157"/>
  <polyline points="313,179 313,180"/>
  <polyline points="314,79 314,82"/>
  <polyline points="314,105 314,110"/>
  <polyline points="314,126 314,127"/>
  <polyline points="314,156 314,157"/>
  <polyline points="315,76 315,82"/>
  <polyline points="315,100 315,107"/>
  <polyline points="315,110 315,112"/>
  <polyline points="315,125 315,126"/>
  <polyline points="315,157 315,158"/>
  <polyline points="315,179 315,180"/>
  <polyline points="316,76 316,77"/>
  <polyline points="316,82 316,95"/>
  <polyline points="316,98 316,100"/>
  <polyline points="316,105 316,107"/>
  <polyline points="316,111 316,112"/>
  <polyline points="316,125 316,126"/>
  <polyline points="316,157 316,158"/>
  <polyline points="316,179 316,180"/>
  <polyline points="317,76 317,77"/>
  <polyline points="317,83 317,99"/>
  <polyline points="317,112 317,113"/>
  <polyline points="317,125 317,126"/>
  <polyline points="317,156 317,158"/>
  <polyline points="317,170 317,172"/>
  <polyline points="317,179 317,180"/>
  <polyline points="318,76 318,77"/>
  <polyline points="318,83 318,84"/>
  <polyline points="318,96 318,97"/>
  <polyline points="318,110 318,113"/>
  <polyline points="318,126 318,127"/>
  <polyline points="318,155 318,157"/>
  <polyline points="318,170 318,173"/>
  <polyline points="318,179 318,180"/>
  <polyline points="319,109 319,112"/>
  <polyline points="319,115 319,117"/>
  <polyline points="319,125 319,127"/>
  <polyline points="319,154 319,155"/>
  <polyline points="319,170 319,173"/>
  <polyline points="319,179 319,180"/>
  <polyline points="320,76 320,77"/>
  <polyline points="320,92 320,94"/>
  <polyline points="320,109 320,118"/>
  <polyline points="320,125 320,126"/>
  <polyline points="320,153 320,154"/>
  <polyline points="320,171 320,174"/>
  <polyline points="320,177 320,179"/>
  <polyline points="321,77 321,78"/>
  <polyline points="321,88 321,94"/>
  <polyline points="321,110 321,113"/>
  <polyline points="321,118 321,119"/>
  <polyline points="321,172 321,177"/>
  <polyline points="322,77 322,78"/>
  <polyline points="322,86 322,91"/>
  <polyline points="322,94 322,95"/>
  <polyline points="322,110 322,112"/>
  <polyline points="322,119 322,120"/>
  <polyline points="322,124 322,125"/>
  <polyline points="322,153 322,154"/>
  <polyline points="322,172 322,176"/>
  <polyline points="323,78 323,79"/>
  <polyline points="323,86 323,87"/>
  <polyline points="323,109 323,112"/>
  <polyline points="323,119 323,124"/>
  <polyline points="323,153 323,154"/>
  <polyline points="323,171 323,173"/>
  <polyline points="324,79 324,81"/>
  <polyline points="324,86 324,88"/>
  <polyline points="324,95 324,96"/>
  <polyline points="324,109 324,111"/>
  <polyline points="324,120 324,124"/>
  <polyline points="324,153 324,154"/>
  <polyline points="324,171 324,173"/>
  <polyline points="325,80 325,83"/>
  <polyline points="325,87 325,88"/>
  <polyline points="325,95 325,96"/>
  <polyline points="325,121 325,124"/>
  <polyline points="325,153 325,155"/>
  <polyline points="325,171 325,172"/>
  <polyline points="326,83 326,90"/>
  <polyline points="326,94 326,95"/>
  <polyline points="326,155 326,156"/>
  <polyline points="326,170 326,171"/>
  <polyline points="327,85 327,94"/>
  <polyline points="327,97 327,100"/>
  <polyline points="327,155 327,156"/>
  <polyline points="327,170 327,171"/>
  <polyline points="328,88 328,93"/>
  <polyline points="328,97 328,102"/>
  <polyline points="328,170 328,171"/>
  <polyline points="329,89 329,91"/>
  <polyline points="329,97 329,98"/>
  <polyline points="329,101 329,103"/>
  <polyline points="329,154 329,155"/>
  <polyline points="329,170 329,171"/>
  <polyline points="330,90 330,92"/>
  <polyline points="330,97 330,98"/>
  <polyline points="330,102 330,106"/>
  <polyline points="330,154 330,155"/>
  <polyline points="330,170 330,171"/>
  <polyline points="331,91 331,93"/>
  <polyline points="331,96 331,98"/>
  <polyline points="331,102 331,107"/>
  <polyline points="331,151 331,154"/>
  <polyline points="331,169 331,170"/>
  <polyline points="332,92 332,98"/>
  <polyline points="332,101 332,105"/>
  <polyline points="332,150 332,153"/>
  <polyline points="332,169 332,171"/>
  <polyline points="333,93 333,95"/>
  <polyline points="333,101 333,104"/>
  <polyline points="333,150 333,151"/>
  <polyline points="333,169 333,171"/>
  <polyline points="334,101 334,102"/>
  <polyline points="334,149 334,150"/>
  <polyline points="334,169 334,171"/>
  <polyline points="335,101 335,102"/>
  <polyline points="335,149 335,150"/>
  <polyline points="335,169 335,170"/>
  <polyline points="336,101 336,102"/>
  <polyline points="336,149 336,150"/>
  <polyline points="336,163 336,165"/>
  <polyline points="336,169 336,170"/>
  <polyline points="337,101 337,102"/>
  <polyline points="337,150 337,151"/>
  <polyline points="337,161 337,165"/>
  <polyline points="337,169 337,170"/>
  <polyline points="338,100 338,102"/>
  <polyline points="338,150 338,152"/>
  <polyline points="338,158 338,165"/>
  <polyline points="338,168 338,169"/>
  <polyline points="339,100 339,101"/>
  <polyline points="339,151 339,154"/>
  <polyline points="339,157 339,160"/>
  <polyline points="339,164 339,169"/>
  <polyline points="340,99 340,100"/>
  <polyline points="340,152 340,158"/>
  <polyline points="340,164 340,170"/>
  <polyline points="341,98 341,99"/>
  <polyline points="341,155 341,157"/>
  <polyline points="341,165 341,170"/>
  <polyline points="342,97 342,98"/>
  <polyline points="342,158 342,160"/>
  <polyline points="342,163 342,170"/>
  <polyline points="343,97 343,98"/>
  <polyline points="343,158 343,160"/>
  <polyline points="343,163 343,170"/>
  <polyline points="344,97 344,98"/>
  <polyline points="344,158 344,169"/>
  <polyline points="345,97 345,98"/>
  <polyline points="345,163 345,167"/>
  <polyline points="346,96 346,98 348,95 350,95"/>
  <polyline points="351,85 351,87"/>
  <polyline points="351,94 351,96"/>
  <polyline points="352,83 352,89"/>
  <polyline points="353,82 353,84"/>
  <polyline points="353,88 353,90"/>
  <polyline points="353,93 353,94"/>
  <polyline points="354,82 354,83"/>
  <polyline points="354,89 354,94"/>
  <polyline points="355,82 355,83"/>
  <polyline points="355,89 355,93"/>
  <polyline points="356,82 356,83"/>
  <polyline points="357,82 360,84 366,84 367,82 370,83 371,81 371,83"/>
  <polyline points="372,79 372,81 374,79"/>
  <polyline points="187,318 187,322"/>
  <polyline points="188,317 188,325"/>
  <polyline points="189,323 189,325"/>
  <polyline points="190,316 190,317"/>
  <polyline points="190,325 190,329"/>
  <polyline points="191,329 191,334"/>
  <polyline points="192,315 192,316"/>
  <polyline points="192,333 192,336"/>
  <polyline points="193,315 193,316"/>
  <polyline points="193,335 193,337"/>
  <polyline points="194,316 194,317"/>
  <polyline points="194,336 194,337"/>
  <polyline points="195,336 195,338"/>
  <polyline points="196,336 196,338"/>
  <polyline points="197,318 197,319"/>
  <polyline points="197,337 197,339"/>
  <polyline points="198,318 198,319"/>
  <polyline points="198,338 198,339"/>
  <polyline points="199,318 199,319"/>
  <polyline points="199,338 199,339"/>
  <polyline points="200,318 200,320"/>
  <polyline points="200,337 200,339"/>
  <polyline points="201,319 201,322"/>
  <polyline points="201,335 201,337"/>
  <polyline points="202,322 202,323"/>
  <polyline points="202,332 202,335"/>
  <polyline points="203,323 203,332"/>
  <polyline points="204,323 204,331"/>
  <polyline points="187,356 199,362"/>
  <polyline points="199,368 199,369"/>
  <polyline points="200,361 200,362"/>
  <polyline points="200,366 200,370"/>
  <polyline points="201,362 201,366"/>
  <polyline points="201,370 201,372"/>
  <polyline points="202,363 202,364"/>
  <polyline points="202,371 204,375 205,374 207,381 211,381"/>
  <polyline points="200,302 200,305"/>
  <polyline points="201,305 201,306"/>
  <polyline points="202,300 202,301"/>
  <polyline points="202,305 202,306"/>
  <polyline points="203,296 203,301"/>
  <polyline points="204,296 204,301"/>
  <polyline points="204,306 204,307"/>
  <polyline points="205,296 205,297"/>
  <polyline points="206,296 206,297"/>
  <polyline points="206,307 206,308"/>
  <polyline points="207,296 207,297"/>
  <polyline points="207,307 207,308"/>
  <polyline points="208,296 208,297"/>
  <polyline points="208,307 208,308"/>
  <polyline points="209,296 209,297"/>
  <polyline points="209,308 209,309"/>
  <polyline points="210,296 210,297"/>
  <polyline points="210,308 210,309"/>
  <polyline points="211,296 211,299"/>
  <polyline points="211,308 211,309"/>
  <polyline points="212,298 212,300"/>
  <polyline points="212,307 212,308"/>
  <polyline points="213,299 213,301"/>
  <polyline points="213,307 213,308"/>
  <polyline points="214,300 214,302"/>
  <polyline points="214,307 214,312"/>
  <polyline points="215,301 215,303"/>
  <polyline points="215,308 215,313"/>
  <polyline points="216,308 216,313"/>
  <polyline points="217,302 217,303"/>
  <polyline points="217,308 217,311"/>
  <polyline points="218,302 218,303"/>
  <polyline points="218,308 218,310"/>
  <polyline points="219,302 219,303"/>
  <polyline points="219,308 219,310"/>
  <polyline points="220,303 220,304"/>
  <polyline points="220,308 220,309"/>
  <polyline points="221,303 221,304"/>
  <polyline points="221,308 221,309"/>
  <polyline points="222,304 222,308"/>
  <polyline points="223,305 223,309"/>
  <polyline points="224,306 224,308"/>
  <polyline points="213,172 214,175"/>
  <polyline points="215,172 216,175"/>
  <polyline points="214,36 214,59"/>
  <polyline points="215,36 215,60"/>
  <polyline points="216,36 216,60"/>
  <polyline points="217,36 217,60"/>
  <polyline points="218,36 218,59"/>
  <polyline points="219,36 219,38"/>
  <polyline points="215,328 215,330"/>
  <polyline points="216,327 216,333"/>
  <polyline points="217,327 217,328"/>
  <polyline points="217,333 217,335"/>
  <polyline points="218,327 218,329"/>
  <polyline points="218,334 218,335"/>
  <polyline points="219,328 219,329"/>
  <polyline points="219,334 219,335"/>
  <polyline points="220,328 220,330"/>
  <polyline points="220,333 220,335"/>
  <polyline points="221,329 221,334"/>
  <polyline points="222,331 222,334"/>
  <polyline points="229,295 229,301"/>
  <polyline points="230,290 230,302"/>
  <polyline points="231,289 231,294"/>
  <polyline points="231,303 231,304"/>
  <polyline points="232,289 232,294"/>
  <polyline points="232,303 232,307"/>
  <polyline points="233,288 233,294"/>
  <polyline points="233,306 233,311"/>
  <polyline points="234,288 234,289"/>
  <polyline points="234,308 234,315"/>
  <polyline points="235,288 235,289"/>
  <polyline points="235,312 235,316"/>
  <polyline points="236,289 236,290"/>
  <polyline points="236,293 236,295"/>
  <polyline points="236,315 236,316"/>
  <polyline points="237,290 237,296"/>
  <polyline points="237,316 237,317"/>
  <polyline points="238,291 238,292"/>
  <polyline points="238,296 238,297"/>
  <polyline points="238,317 238,318"/>
  <polyline points="239,297 239,298"/>
  <polyline points="239,317 239,319"/>
  <polyline points="240,296 240,298"/>
  <polyline points="240,318 240,319"/>
  <polyline points="241,295 241,298"/>
  <polyline points="241,318 241,319"/>
  <polyline points="242,294 242,300"/>
  <polyline points="242,318 242,319"/>
  <polyline points="243,299 243,300"/>
  <polyline points="243,318 243,319"/>
  <polyline points="244,299 244,304"/>
  <polyline points="244,318 244,319"/>
  <polyline points="245,300 245,306"/>
  <polyline points="245,317 245,318"/>
  <polyline points="246,304 246,313"/>
  <polyline points="246,316 246,318"/>
  <polyline points="247,307 247,317 248,316"/>
  <polyline points="231,279 232,278 232,280 233,278 233,280 234,279 236,283"/>
  <polyline points="233,36 234,59"/>
  <polyline points="235,36 235,60"/>
  <polyline points="236,36 236,60"/>
  <polyline points="237,36 237,60"/>
  <polyline points="238,37 238,59"/>
  <polyline points="239,145 240,144 240,146 241,144 241,146"/>
  <polyline points="240,231 240,237"/>
  <polyline points="241,231 241,238"/>
  <polyline points="242,230 242,232"/>
  <polyline points="242,236 242,240"/>
  <polyline points="243,230 243,231"/>
  <polyline points="243,239 243,241"/>
  <polyline points="244,229 244,230"/>
  <polyline points="244,240 244,241"/>
  <polyline points="245,228 245,229"/>
  <polyline points="245,240 245,241"/>
  <polyline points="246,239 246,240"/>
  <polyline points="247,238 247,240"/>
  <polyline points="248,228 248,230"/>
  <polyline points="248,238 248,239"/>
  <polyline points="249,229 249,230"/>
  <polyline points="249,235 249,238"/>
  <polyline points="250,229 250,231"/>
  <polyline points="250,235 250,237"/>
  <polyline points="251,229 251,235"/>
  <polyline points="252,232 252,234"/>
  <polyline points="240,337 241,339"/>
  <polyline points="242,336 242,341"/>
  <polyline points="243,334 243,336"/>
  <polyline points="243,341 243,342"/>
  <polyline points="244,333 244,335"/>
  <polyline points="244,342 244,343"/>
  <polyline points="245,332 245,333"/>
  <polyline points="245,343 245,345"/>
  <polyline points="246,332 246,333"/>
  <polyline points="246,344 246,347"/>
  <polyline points="247,332 247,334"/>
  <polyline points="247,346 247,349"/>
  <polyline points="248,333 248,335"/>
  <polyline points="248,349 248,350"/>
  <polyline points="249,350 249,351"/>
  <polyline points="249,354 249,355"/>
  <polyline points="250,334 250,335"/>
  <polyline points="250,351 250,358"/>
  <polyline points="251,324 251,329"/>
  <polyline points="251,334 251,336"/>
  <polyline points="251,352 251,353"/>
  <polyline points="251,356 251,359"/>
  <polyline points="252,323 252,331"/>
  <polyline points="252,335 252,336"/>
  <polyline points="252,359 252,360"/>
  <polyline points="253,310 253,318"/>
  <polyline points="253,322 253,323"/>
  <polyline points="253,331 253,336"/>
  <polyline points="254,302 254,310"/>
  <polyline points="254,317 254,322"/>
  <polyline points="255,299 255,309"/>
  <polyline points="255,318 255,320"/>
  <polyline points="256,298 256,301"/>
  <polyline points="257,298 258,298"/>
  <polyline points="259,295 259,297"/>
  <polyline points="260,284 260,296"/>
  <polyline points="261,281 261,295"/>
  <polyline points="262,279 262,283"/>
  <polyline points="263,276 263,280"/>
  <polyline points="264,274 264,276"/>
  <polyline points="265,271 265,275"/>
  <polyline points="266,270 266,273"/>
  <polyline points="267,269 270,268 271,270 272,269 272,271 274,271"/>
  <polyline points="274,280 274,284"/>
  <polyline points="275,271 275,274"/>
  <polyline points="275,278 275,284"/>
  <polyline points="276,271 276,279"/>
  <polyline points="276,283 276,284"/>
  <polyline points="277,275 277,278"/>
  <polyline points="277,283 278,284 279,282 281,283 282,281 284,281"/>
  <polyline points="285,278 285,280"/>
  <polyline points="286,276 286,280"/>
  <polyline points="287,275 287,277"/>
  <polyline points="288,273 288,275"/>
  <polyline points="289,271 289,273"/>
  <polyline points="290,268 290,271"/>
  <polyline points="291,265 291,269"/>
  <polyline points="292,264 292,268"/>
  <polyline points="243,290 244,292"/>
  <polyline points="245,282 245,284"/>
  <polyline points="245,289 245,291"/>
  <polyline points="246,276 246,277"/>
  <polyline points="246,281 246,285"/>
  <polyline points="246,288 246,291"/>
  <polyline points="247,276 247,278"/>
  <polyline points="247,281 247,285"/>
  <polyline points="247,288 247,291"/>
  <polyline points="248,276 248,277"/>
  <polyline points="248,281 248,291"/>
  <polyline points="249,276 249,285"/>
  <polyline points="250,274 250,284"/>
  <polyline points="251,273 251,275"/>
  <polyline points="251,278 251,282"/>
  <polyline points="252,272 252,273"/>
  <polyline points="253,271 253,272"/>
  <polyline points="253,279 253,281"/>
  <polyline points="254,271 254,272"/>
  <polyline points="254,280 254,282"/>
  <polyline points="255,271 255,276"/>
  <polyline points="255,281 255,283"/>
  <polyline points="256,272 256,277"/>
  <polyline points="256,282 256,283"/>
  <polyline points="257,276 257,283"/>
  <polyline points="258,278 258,281"/>
  <polyline points="243,358 243,360"/>
  <polyline points="244,357 244,361"/>
  <polyline points="245,358 245,363"/>
  <polyline points="246,358 246,364"/>
  <polyline points="247,360 247,361"/>
  <polyline points="247,364 247,366"/>
  <polyline points="248,361 248,362"/>
  <polyline points="248,365 248,366"/>
  <polyline points="249,362 249,367"/>
  <polyline points="250,363 250,367"/>
  <polyline points="251,364 251,368"/>
  <polyline points="252,365 252,368"/>
  <polyline points="248,36 248,60"/>
  <polyline points="249,36 249,60"/>
  <polyline points="250,36 250,61"/>
  <polyline points="251,36 251,61"/>
  <polyline points="252,36 252,61"/>
  <polyline points="253,56 253,61"/>
  <polyline points="254,56 254,61"/>
  <polyline points="255,56 255,61"/>
  <polyline points="256,56 256,61"/>
  <polyline points="257,56 257,61"/>
  <polyline points="258,56 258,61"/>
  <polyline points="259,56 259,61"/>
  <polyline points="260,56 260,61"/>
  <polyline points="261,56 261,61"/>
  <polyline points="262,56 262,61"/>
  <polyline points="263,56 263,61"/>
  <polyline points="264,56 264,61"/>
  <polyline points="265,56 265,61"/>
  <polyline points="266,56 266,61"/>
  <polyline points="267,56 267,61"/>
  <polyline points="268,57 268,61"/>
  <polyline points="269,56 269,60"/>
  <polyline points="270,56 270,60"/>
  <polyline points="271,56 271,60"/>
  <polyline points="272,56 272,60"/>
  <polyline points="273,55 273,59"/>
  <polyline points="274,55 274,59"/>
  <polyline points="275,54 275,59"/>
  <polyline points="276,54 276,58"/>
  <polyline points="277,53 277,58"/>
  <polyline points="278,52 278,57"/>
  <polyline points="279,51 279,56"/>
  <polyline points="280,50 280,56"/>
  <polyline points="281,48 281,55"/>
  <polyline points="282,47 282,54"/>
  <polyline points="283,45 283,53"/>
  <polyline points="284,43 284,51"/>
  <polyline points="285,38 285,50"/>
  <polyline points="286,36 286,49"/>
  <polyline points="287,36 287,47"/>
  <polyline points="288,36 288,45"/>
  <polyline points="289,36 289,41"/>
  <polyline points="250,247 251,246 251,248 252,246 252,248"/>
  <polyline points="253,142 254,145"/>
  <polyline points="255,142 255,146"/>
  <polyline points="256,142 256,147"/>
  <polyline points="257,142 257,143"/>
  <polyline points="257,146 257,148"/>
  <polyline points="258,142 258,145"/>
  <polyline points="258,148 258,149"/>
  <polyline points="259,144 259,145"/>
  <polyline points="259,149 259,150"/>
  <polyline points="260,145 260,149"/>
  <polyline points="261,146 261,149"/>
  <polyline points="262,146 262,150"/>
  <polyline points="254,360 255,362 256,361 256,363 257,361 258,366 260,365 260,369"/>
  <polyline points="261,365 261,371 262,370 263,373 265,372 266,375 268,374 268,376 269,375 269,377 270,376 270,378 271,377 273,381"/>
  <polyline points="256,244 257,243 257,246"/>
  <polyline points="258,242 258,247"/>
  <polyline points="259,242 259,247"/>
  <polyline points="260,243 260,249"/>
  <polyline points="261,245 261,250"/>
  <polyline points="262,244 262,245"/>
  <polyline points="262,250 262,251"/>
  <polyline points="263,251 263,252"/>
  <polyline points="264,250 264,252"/>
  <polyline points="265,250 265,254"/>
  <polyline points="266,244 266,253"/>
  <polyline points="267,244 267,252"/>
  <polyline points="268,243 268,250"/>
  <polyline points="269,246 269,247"/>
  <polyline points="269,250 269,254"/>
  <polyline points="270,246 270,247"/>
  <polyline points="270,252 270,255"/>
  <polyline points="271,246 271,247"/>
  <polyline points="271,255 271,256"/>
  <polyline points="272,246 272,247"/>
  <polyline points="272,255 272,256"/>
  <polyline points="273,246 273,247"/>
  <polyline points="274,246 274,247"/>
  <polyline points="275,245 275,247"/>
  <polyline points="276,246 276,248"/>
  <polyline points="277,246 277,249"/>
  <polyline points="277,254 277,255"/>
  <polyline points="278,248 278,249"/>
  <polyline points="278,253 278,254"/>
  <polyline points="279,248 279,249"/>
  <polyline points="279,253 279,254"/>
  <polyline points="280,247 280,249"/>
  <polyline points="280,253 280,254"/>
  <polyline points="281,253 281,254"/>
  <polyline points="282,248 282,249"/>
  <polyline points="282,253 282,254"/>
  <polyline points="283,248 283,249"/>
  <polyline points="283,253 283,254"/>
  <polyline points="284,248 284,253"/>
  <polyline points="274,163 274,165 276,163 276,166"/>
  <polyline points="277,163 277,166"/>
  <polyline points="278,163 279,167"/>
  <polyline points="282,176 284,176 284,179"/>
  <polyline points="285,175 285,180"/>
  <polyline points="286,175 286,177"/>
  <polyline points="286,180 286,181"/>
  <polyline points="287,175 287,176"/>
  <polyline points="287,180 287,182"/>
  <polyline points="288,175 288,176"/>
  <polyline points="288,180 288,182"/>
  <polyline points="290,176 292,177"/>
  <polyline points="293,176 293,177"/>
  <polyline points="293,181 293,182"/>
  <polyline points="294,175 294,177"/>
  <polyline points="294,181 294,183"/>
  <polyline points="295,175 295,176"/>
  <polyline points="295,182 295,183"/>
  <polyline points="296,175 296,176"/>
  <polyline points="297,175 297,178"/>
  <polyline points="297,181 297,182"/>
  <polyline points="298,176 298,182"/>
  <polyline points="299,179 299,180"/>
  <polyline points="290,230 290,231"/>
  <polyline points="290,234 290,237"/>
  <polyline points="291,229 291,238"/>
  <polyline points="292,226 292,234"/>
  <polyline points="292,237 292,238"/>
  <polyline points="293,223 293,229"/>
  <polyline points="293,238 293,239"/>
  <polyline points="294,222 294,224"/>
  <polyline points="294,238 294,240"/>
  <polyline points="295,222 295,223"/>
  <polyline points="295,239 295,242"/>
  <polyline points="295,260 295,261"/>
  <polyline points="296,223 296,224"/>
  <polyline points="296,240 296,243"/>
  <polyline points="296,259 296,261"/>
  <polyline points="297,223 297,224"/>
  <polyline points="297,242 297,245"/>
  <polyline points="297,259 297,261"/>
  <polyline points="298,222 298,223"/>
  <polyline points="298,244 298,246"/>
  <polyline points="298,259 298,260"/>
  <polyline points="299,220 299,223"/>
  <polyline points="299,246 299,247"/>
  <polyline points="299,259 299,260"/>
  <polyline points="300,220 300,221"/>
  <polyline points="300,247 300,250"/>
  <polyline points="300,257 300,259"/>
  <polyline points="301,220 301,221"/>
  <polyline points="301,248 301,250"/>
  <polyline points="301,255 301,258"/>
  <polyline points="302,219 302,220"/>
  <polyline points="302,248 302,249"/>
  <polyline points="302,254 302,256"/>
  <polyline points="303,219 303,220"/>
  <polyline points="303,247 303,248"/>
  <polyline points="303,254 303,255"/>
  <polyline points="304,219 304,220"/>
  <polyline points="304,247 304,248"/>
  <polyline points="304,253 304,254"/>
  <polyline points="305,217 305,219"/>
  <polyline points="305,247 305,248"/>
  <polyline points="305,252 305,253"/>
  <polyline points="306,215 306,217"/>
  <polyline points="306,247 306,248"/>
  <polyline points="306,252 306,253"/>
  <polyline points="307,215 307,216"/>
  <polyline points="307,247 307,248"/>
  <polyline points="307,252 307,253"/>
  <polyline points="308,215 308,216"/>
  <polyline points="308,247 308,248"/>
  <polyline points="309,215 309,216"/>
  <polyline points="309,247 309,248"/>
  <polyline points="309,251 309,252"/>
  <polyline points="310,215 310,216"/>
  <polyline points="310,246 310,247"/>
  <polyline points="310,250 310,252"/>
  <polyline points="311,214 311,215"/>
  <polyline points="311,246 311,250"/>
  <polyline points="312,212 312,215"/>
  <polyline points="312,247 312,249"/>
  <polyline points="313,210 313,214"/>
  <polyline points="314,209 314,212"/>
  <polyline points="315,208 315,209"/>
  <polyline points="316,206 316,208"/>
  <polyline points="317,204 317,207"/>
  <polyline points="318,204 322,204 324,201 328,203"/>
  <polyline points="290,244 291,246 292,244 292,246"/>
  <polyline points="301,36 301,60"/>
  <polyline points="302,36 302,60"/>
  <polyline points="303,36 303,60"/>
  <polyline points="304,36 304,60"/>
  <polyline points="315,36 315,37"/>
  <polyline points="315,51 315,52"/>
  <polyline points="316,36 316,40"/>
  <polyline points="316,50 316,55"/>
  <polyline points="317,36 317,42"/>
  <polyline points="317,49 317,57"/>
  <polyline points="318,36 318,43"/>
  <polyline points="318,49 318,58"/>
  <polyline points="319,36 319,43"/>
  <polyline points="319,50 319,59"/>
  <polyline points="320,39 320,44"/>
  <polyline points="320,54 320,59"/>
  <polyline points="321,40 321,45"/>
  <polyline points="321,55 321,60"/>
  <polyline points="322,40 322,45"/>
  <polyline points="322,56 322,60"/>
  <polyline points="323,41 323,45"/>
  <polyline points="323,56 323,60"/>
  <polyline points="324,41 324,46"/>
  <polyline points="324,56 324,61"/>
  <polyline points="325,42 325,46"/>
  <polyline points="325,56 325,61"/>
  <polyline points="326,42 326,46"/>
  <polyline points="326,56 326,60"/>
  <polyline points="327,43 327,47"/>
  <polyline points="327,56 327,60"/>
  <polyline points="328,43 328,48"/>
  <polyline points="328,55 328,60"/>
  <polyline points="329,43 329,49"/>
  <polyline points="329,54 329,59"/>
  <polyline points="330,44 330,59"/>
  <polyline points="331,45 331,58"/>
  <polyline points="332,46 332,57"/>
  <polyline points="333,47 333,56"/>
  <polyline points="334,48 334,53"/>
  <polyline points="335,48 340,48"/>
  <polyline points="341,38 341,49"/>
  <polyline points="342,37 342,51"/>
  <polyline points="343,36 343,52"/>
  <polyline points="344,36 344,54"/>
  <polyline points="345,36 345,55"/>
  <polyline points="346,36 346,39"/>
  <polyline points="346,49 346,56"/>
  <polyline points="347,36 347,37"/>
  <polyline points="347,50 347,57"/>
  <polyline points="348,51 348,58"/>
  <polyline points="349,41 349,42"/>
  <polyline points="349,51 349,58"/>
  <polyline points="350,40 350,44"/>
  <polyline points="350,51 350,59"/>
  <polyline points="351,39 351,40"/>
  <polyline points="351,43 351,46"/>
  <polyline points="351,51 351,52"/>
  <polyline points="351,55 351,59"/>
  <polyline points="352,46 352,48"/>
  <polyline points="352,52 352,60"/>
  <polyline points="353,47 353,53"/>
  <polyline points="353,56 353,60"/>
  <polyline points="354,49 354,52"/>
  <polyline points="354,56 354,60"/>
  <polyline points="355,56 355,60"/>
  <polyline points="356,38 356,39"/>
  <polyline points="356,56 356,61"/>
  <polyline points="357,38 357,39"/>
  <polyline points="357,56 357,61"/>
  <polyline points="358,38 358,39"/>
  <polyline points="358,56 358,61"/>
  <polyline points="359,56 359,61"/>
  <polyline points="360,56 360,60"/>
  <polyline points="361,56 361,60"/>
  <polyline points="362,56 362,60"/>
  <polyline points="363,55 363,60"/>
  <polyline points="364,38 364,39"/>
  <polyline points="364,48 364,52"/>
  <polyline points="364,55 364,59"/>
  <polyline points="365,38 365,39"/>
  <polyline points="365,47 365,59"/>
  <polyline points="366,39 366,40"/>
  <polyline points="366,46 366,48"/>
  <polyline points="366,53 366,58"/>
  <polyline points="367,40 367,41"/>
  <polyline points="367,46 367,47"/>
  <polyline points="367,52 367,58"/>
  <polyline points="368,36 368,37"/>
  <polyline points="368,40 368,41"/>
  <polyline points="368,46 368,47"/>
  <polyline points="368,51 368,57"/>
  <polyline points="369,36 369,42"/>
  <polyline points="369,46 369,57"/>
  <polyline points="370,36 370,58"/>
  <polyline points="371,36 371,60"/>
  <polyline points="372,36 372,60"/>
  <polyline points="373,36 373,61"/>
  <polyline points="374,36 374,62"/>
  <polyline points="375,43 375,46"/>
  <polyline points="375,61 377,62 377,64"/>
  <polyline points="378,63 378,65"/>
  <polyline points="378,79 378,80"/>
  <polyline points="379,64 379,67"/>
  <polyline points="379,79 379,82"/>
  <polyline points="380,65 380,70"/>
  <polyline points="380,80 380,82"/>
  <polyline points="381,68 381,76"/>
  <polyline points="381,80 381,81"/>
  <polyline points="382,73 382,80"/>
  <polyline points="383,77 383,80 385,82"/>
  <polyline points="320,130 320,133"/>
  <polyline points="321,130 321,133"/>
  <polyline points="321,102 322,105"/>
  <polyline points="323,102 323,105"/>
  <polyline points="324,102 325,104"/>
  <polyline points="322,245 322,247"/>
  <polyline points="323,244 323,247"/>
  <polyline points="324,242 324,247"/>
  <polyline points="325,241 325,245"/>
  <polyline points="325,272 325,275"/>
  <polyline points="326,241 326,244"/>
  <polyline points="326,267 326,272"/>
  <polyline points="326,275 326,277"/>
  <polyline points="327,240 327,245"/>
  <polyline points="327,266 327,271"/>
  <polyline points="327,277 327,282"/>
  <polyline points="328,239 328,240"/>
  <polyline points="328,244 328,246"/>
  <polyline points="328,265 328,266"/>
  <polyline points="328,269 328,270"/>
  <polyline points="328,279 328,284"/>
  <polyline points="329,238 329,239"/>
  <polyline points="329,245 329,247"/>
  <polyline points="329,265 329,266"/>
  <polyline points="329,283 329,285"/>
  <polyline points="330,201 330,202"/>
  <polyline points="330,238 330,239"/>
  <polyline points="330,247 330,248"/>
  <polyline points="330,265 330,266"/>
  <polyline points="330,284 330,286"/>
  <polyline points="331,200 331,201"/>
  <polyline points="331,237 331,238"/>
  <polyline points="331,247 331,248"/>
  <polyline points="331,265 331,267"/>
  <polyline points="331,285 331,287"/>
  <polyline points="332,200 332,201"/>
  <polyline points="332,237 332,238"/>
  <polyline points="332,248 332,249"/>
  <polyline points="332,264 332,266"/>
  <polyline points="332,286 332,290"/>
  <polyline points="333,200 333,201"/>
  <polyline points="333,237 333,238"/>
  <polyline points="333,248 333,249"/>
  <polyline points="333,262 333,265"/>
  <polyline points="333,286 333,289"/>
  <polyline points="334,200 334,201"/>
  <polyline points="334,236 334,237"/>
  <polyline points="334,248 334,249"/>
  <polyline points="334,261 334,263"/>
  <polyline points="334,286 334,287"/>
  <polyline points="335,200 335,201"/>
  <polyline points="335,236 335,237"/>
  <polyline points="335,246 335,248"/>
  <polyline points="335,261 335,262"/>
  <polyline points="335,286 335,287"/>
  <polyline points="336,200 336,201"/>
  <polyline points="336,234 336,236"/>
  <polyline points="336,245 336,246"/>
  <polyline points="336,258 336,262"/>
  <polyline points="336,286 336,287"/>
  <polyline points="336,290 336,297"/>
  <polyline points="337,199 337,200"/>
  <polyline points="337,232 337,235"/>
  <polyline points="337,245 337,250"/>
  <polyline points="337,257 337,261"/>
  <polyline points="337,287 337,291"/>
  <polyline points="337,296 337,298"/>
  <polyline points="338,199 338,200"/>
  <polyline points="338,229 338,234"/>
  <polyline points="338,244 338,250"/>
  <polyline points="338,256 338,257"/>
  <polyline points="338,288 338,290"/>
  <polyline points="338,297 338,299"/>
  <polyline points="339,199 339,200"/>
  <polyline points="339,228 339,231"/>
  <polyline points="339,243 339,247"/>
  <polyline points="339,250 339,251"/>
  <polyline points="339,255 339,257"/>
  <polyline points="339,298 339,300"/>
  <polyline points="339,351 339,352"/>
  <polyline points="340,199 340,200"/>
  <polyline points="340,228 340,229"/>
  <polyline points="340,244 340,246"/>
  <polyline points="340,250 340,251"/>
  <polyline points="340,254 340,256"/>
  <polyline points="340,299 340,300"/>
  <polyline points="340,350 340,353"/>
  <polyline points="341,198 341,200"/>
  <polyline points="341,227 341,228"/>
  <polyline points="341,250 341,255"/>
  <polyline points="341,299 341,301"/>
  <polyline points="341,348 341,355"/>
  <polyline points="342,197 342,200"/>
  <polyline points="342,227 342,228"/>
  <polyline points="342,251 342,253"/>
  <polyline points="342,300 342,301"/>
  <polyline points="342,348 342,350"/>
  <polyline points="342,355 342,365"/>
  <polyline points="343,198 343,200"/>
  <polyline points="343,227 343,228"/>
  <polyline points="343,299 343,300"/>
  <polyline points="343,347 343,349"/>
  <polyline points="343,356 343,367"/>
  <polyline points="344,198 344,200"/>
  <polyline points="344,298 344,300"/>
  <polyline points="344,346 344,348"/>
  <polyline points="344,366 344,367"/>
  <polyline points="345,197 345,199"/>
  <polyline points="345,226 345,227"/>
  <polyline points="345,296 345,299"/>
  <polyline points="345,344 345,346"/>
  <polyline points="345,366 345,368"/>
  <polyline points="346,196 346,198"/>
  <polyline points="346,227 346,228"/>
  <polyline points="346,294 346,296"/>
  <polyline points="346,342 346,345"/>
  <polyline points="346,363 346,367"/>
  <polyline points="347,196 347,199"/>
  <polyline points="347,227 347,228"/>
  <polyline points="347,294 347,299"/>
  <polyline points="347,316 347,319"/>
  <polyline points="347,339 347,342"/>
  <polyline points="347,361 347,363"/>
  <polyline points="348,197 348,200"/>
  <polyline points="348,226 348,227"/>
  <polyline points="348,295 348,299"/>
  <polyline points="348,305 348,307"/>
  <polyline points="348,312 348,321"/>
  <polyline points="348,337 348,341"/>
  <polyline points="348,360 348,362"/>
  <polyline points="349,198 349,201"/>
  <polyline points="349,226 349,227"/>
  <polyline points="349,237 349,238"/>
  <polyline points="349,298 349,315"/>
  <polyline points="349,320 349,326"/>
  <polyline points="349,334 349,339"/>
  <polyline points="349,358 349,361"/>
  <polyline points="350,198 350,202"/>
  <polyline points="350,225 350,226"/>
  <polyline points="350,236 350,240"/>
  <polyline points="350,298 350,304"/>
  <polyline points="350,308 350,311"/>
  <polyline points="350,322 350,336"/>
  <polyline points="350,356 350,360"/>
  <polyline points="351,201 351,202"/>
  <polyline points="351,224 351,228"/>
  <polyline points="351,234 351,236"/>
  <polyline points="351,240 351,242"/>
  <polyline points="351,327 351,328"/>
  <polyline points="351,332 351,333"/>
  <polyline points="351,351 351,356"/>
  <polyline points="352,200 352,201"/>
  <polyline points="352,227 352,234"/>
  <polyline points="352,242 352,243"/>
  <polyline points="352,335 352,351"/>
  <polyline points="353,200 353,201"/>
  <polyline points="353,229 353,233"/>
  <polyline points="353,242 353,243"/>
  <polyline points="353,311 353,344"/>
  <polyline points="353,347 353,350"/>
  <polyline points="354,195 354,201"/>
  <polyline points="354,243 354,244"/>
  <polyline points="354,310 354,324"/>
  <polyline points="354,328 354,334"/>
  <polyline points="355,194 355,200"/>
  <polyline points="355,309 355,311"/>
  <polyline points="356,193 356,195"/>
  <polyline points="356,243 356,244"/>
  <polyline points="356,307 356,309"/>
  <polyline points="357,192 357,194"/>
  <polyline points="357,305 357,308"/>
  <polyline points="358,192 358,193"/>
  <polyline points="358,303 358,306"/>
  <polyline points="359,192 359,193"/>
  <polyline points="359,243 359,244"/>
  <polyline points="359,301 359,305"/>
  <polyline points="360,193 360,194"/>
  <polyline points="360,243 360,244"/>
  <polyline points="360,300 360,303"/>
  <polyline points="361,193 361,194"/>
  <polyline points="361,243 361,244"/>
  <polyline points="361,300 361,301"/>
  <polyline points="362,192 362,194"/>
  <polyline points="362,243 362,244"/>
  <polyline points="362,298 362,300"/>
  <polyline points="363,192 363,194"/>
  <polyline points="363,241 363,244"/>
  <polyline points="363,295 363,299"/>
  <polyline points="364,193 364,194"/>
  <polyline points="364,210 364,212"/>
  <polyline points="364,240 364,242"/>
  <polyline points="364,294 364,298"/>
  <polyline points="365,193 365,195"/>
  <polyline points="365,209 365,213"/>
  <polyline points="365,239 365,240"/>
  <polyline points="365,294 365,297"/>
  <polyline points="366,194 366,195"/>
  <polyline points="366,209 366,213"/>
  <polyline points="366,295 366,296"/>
  <polyline points="367,194 367,196"/>
  <polyline points="367,208 367,209"/>
  <polyline points="367,212 367,213"/>
  <polyline points="367,238 367,240"/>
  <polyline points="367,294 367,295"/>
  <polyline points="368,195 368,197"/>
  <polyline points="368,239 368,242"/>
  <polyline points="368,294 368,295"/>
  <polyline points="369,197 369,200"/>
  <polyline points="369,207 369,208"/>
  <polyline points="369,239 369,242"/>
  <polyline points="369,295 369,296"/>
  <polyline points="370,198 370,201"/>
  <polyline points="370,207 370,208"/>
  <polyline points="370,241 370,242"/>
  <polyline points="371,200 371,201"/>
  <polyline points="371,207 371,208"/>
  <polyline points="371,241 371,242"/>
  <polyline points="371,295 371,296"/>
  <polyline points="372,200 372,201"/>
  <polyline points="372,207 372,208"/>
  <polyline points="372,212 372,213"/>
  <polyline points="372,240 372,241"/>
  <polyline points="373,200 373,201"/>
  <polyline points="373,206 373,207"/>
  <polyline points="373,282 373,283"/>
  <polyline points="373,294 373,295"/>
  <polyline points="374,199 374,200"/>
  <polyline points="374,206 374,207"/>
  <polyline points="374,240 374,248"/>
  <polyline points="374,281 374,283"/>
  <polyline points="374,294 374,295"/>
  <polyline points="375,199 375,200"/>
  <polyline points="375,205 375,206"/>
  <polyline points="375,240 375,252"/>
  <polyline points="375,280 375,283"/>
  <polyline points="375,294 375,295"/>
  <polyline points="376,198 376,199"/>
  <polyline points="376,205 376,206"/>
  <polyline points="376,241 376,242"/>
  <polyline points="376,249 376,254"/>
  <polyline points="376,279 376,286"/>
  <polyline points="376,293 376,295"/>
  <polyline points="377,205 377,206"/>
  <polyline points="377,253 377,254"/>
  <polyline points="377,274 377,279"/>
  <polyline points="377,286 377,293"/>
  <polyline points="378,198 378,199"/>
  <polyline points="378,205 378,206"/>
  <polyline points="378,275 378,278"/>
  <polyline points="378,287 378,291"/>
  <polyline points="379,198 379,200"/>
  <polyline points="379,204 379,205"/>
  <polyline points="379,213 379,214"/>
  <polyline points="379,276 379,281"/>
  <polyline points="379,288 379,289"/>
  <polyline points="380,199 380,205"/>
  <polyline points="380,253 380,254"/>
  <polyline points="380,276 380,282"/>
  <polyline points="381,200 381,205"/>
  <polyline points="381,252 381,253"/>
  <polyline points="381,280 381,282"/>
  <polyline points="382,202 382,203"/>
  <polyline points="382,252 382,253"/>
  <polyline points="382,280 382,281"/>
  <polyline points="383,252 383,253"/>
  <polyline points="383,281 383,284"/>
  <polyline points="384,251 384,253"/>
  <polyline points="384,282 384,284"/>
  <polyline points="385,212 385,213"/>
  <polyline points="385,250 385,252"/>
  <polyline points="385,283 385,284"/>
  <polyline points="386,250 386,251"/>
  <polyline points="386,283 386,284"/>
  <polyline points="387,249 387,250"/>
  <polyline points="387,283 387,284"/>
  <polyline points="388,212 388,213"/>
  <polyline points="388,244 388,249"/>
  <polyline points="388,284 388,286"/>
  <polyline points="389,212 389,213"/>
  <polyline points="389,243 389,248"/>
  <polyline points="389,285 389,288"/>
  <polyline points="390,212 390,213"/>
  <polyline points="390,242 390,244"/>
  <polyline points="390,287 390,289"/>
  <polyline points="391,212 391,213"/>
  <polyline points="391,242 391,243"/>
  <polyline points="391,288 391,289"/>
  <polyline points="392,213 392,214"/>
  <polyline points="392,242 392,243"/>
  <polyline points="392,247 392,249"/>
  <polyline points="392,288 392,289"/>
  <polyline points="393,214 393,216"/>
  <polyline points="393,242 393,249"/>
  <polyline points="393,284 393,285"/>
  <polyline points="393,288 393,289"/>
  <polyline points="394,215 394,217"/>
  <polyline points="394,242 394,248"/>
  <polyline points="394,283 394,290"/>
  <polyline points="395,216 395,217"/>
  <polyline points="395,241 395,244"/>
  <polyline points="395,247 395,248"/>
  <polyline points="395,263 395,264"/>
  <polyline points="395,283 395,291"/>
  <polyline points="396,216 396,218"/>
  <polyline points="396,226 396,228"/>
  <polyline points="396,240 396,243"/>
  <polyline points="396,247 396,248"/>
  <polyline points="396,262 396,265"/>
  <polyline points="396,283 396,284"/>
  <polyline points="396,288 396,292"/>
  <polyline points="397,218 397,219"/>
  <polyline points="397,224 397,229"/>
  <polyline points="397,239 397,242"/>
  <polyline points="397,246 397,247"/>
  <polyline points="397,261 397,266"/>
  <polyline points="397,279 397,284"/>
  <polyline points="397,290 397,293"/>
  <polyline points="398,220 398,221"/>
  <polyline points="398,224 398,225"/>
  <polyline points="398,228 398,229"/>
  <polyline points="398,234 398,241"/>
  <polyline points="398,246 398,247"/>
  <polyline points="398,261 398,262"/>
  <polyline points="398,265 398,269"/>
  <polyline points="398,292 398,294"/>
  <polyline points="399,220 399,224"/>
  <polyline points="399,227 399,228"/>
  <polyline points="399,232 399,236"/>
  <polyline points="399,239 399,240"/>
  <polyline points="399,260 399,261"/>
  <polyline points="399,266 399,273"/>
  <polyline points="399,276 399,280"/>
  <polyline points="400,221 400,223"/>
  <polyline points="400,227 400,228"/>
  <polyline points="400,231 400,236"/>
  <polyline points="400,245 400,246"/>
  <polyline points="400,260 400,261"/>
  <polyline points="400,269 400,280"/>
  <polyline points="401,227 401,228"/>
  <polyline points="401,231 401,232"/>
  <polyline points="401,235 401,238"/>
  <polyline points="401,244 401,246"/>
  <polyline points="401,259 401,261"/>
  <polyline points="401,274 401,280"/>
  <polyline points="402,227 402,232"/>
  <polyline points="402,235 402,238"/>
  <polyline points="402,243 402,244"/>
  <polyline points="402,260 402,262"/>
  <polyline points="402,275 402,279"/>
  <polyline points="403,227 403,231"/>
  <polyline points="403,238 403,239"/>
  <polyline points="403,261 403,271"/>
  <polyline points="403,274 403,279"/>
  <polyline points="404,227 404,231"/>
  <polyline points="404,238 404,239"/>
  <polyline points="404,242 404,243"/>
  <polyline points="404,270 404,275"/>
  <polyline points="404,279 404,280"/>
  <polyline points="405,228 405,230"/>
  <polyline points="405,237 405,243"/>
  <polyline points="405,272 405,274"/>
  <polyline points="405,279 405,284"/>
  <polyline points="406,237 406,241"/>
  <polyline points="406,280 406,284"/>
  <polyline points="407,237 407,239"/>
  <polyline points="407,283 407,284"/>
  <polyline points="408,281 408,284"/>
  <polyline points="409,281 409,283 410,281 411,283 413,281 415,282"/>
  <polyline points="416,271 416,281"/>
  <polyline points="417,270 417,281"/>
  <polyline points="418,268 418,270"/>
  <polyline points="419,267 419,269 423,265 430,265 431,263 432,264"/>
  <polyline points="327,131 327,133"/>
  <polyline points="328,130 328,133"/>
  <polyline points="329,129 329,133"/>
  <polyline points="330,127 330,129"/>
  <polyline points="330,132 330,133"/>
  <polyline points="331,127 331,128"/>
  <polyline points="331,132 331,133"/>
  <polyline points="332,132 334,134"/>
  <polyline points="335,126 335,127"/>
  <polyline points="335,134 335,136"/>
  <polyline points="336,126 336,127"/>
  <polyline points="336,135 336,137"/>
  <polyline points="337,125 337,127"/>
  <polyline points="338,124 338,126"/>
  <polyline points="338,137 338,139"/>
  <polyline points="339,122 339,125"/>
  <polyline points="339,137 339,141"/>
  <polyline points="340,121 340,124"/>
  <polyline points="340,140 340,142"/>
  <polyline points="341,120 341,122"/>
  <polyline points="341,142 341,143"/>
  <polyline points="342,120 342,121"/>
  <polyline points="342,142 342,144"/>
  <polyline points="343,119 343,120"/>
  <polyline points="343,143 343,144"/>
  <polyline points="344,119 344,120"/>
  <polyline points="344,143 344,144"/>
  <polyline points="345,118 345,120"/>
  <polyline points="346,118 346,121"/>
  <polyline points="346,144 346,145"/>
  <polyline points="347,119 347,121"/>
  <polyline points="347,145 347,146"/>
  <polyline points="348,119 348,121"/>
  <polyline points="348,126 348,129"/>
  <polyline points="348,144 348,146"/>
  <polyline points="349,119 349,130"/>
  <polyline points="349,144 349,146"/>
  <polyline points="350,119 350,125"/>
  <polyline points="350,129 350,131"/>
  <polyline points="350,144 350,145"/>
  <polyline points="351,144 351,145"/>
  <polyline points="352,144 352,146"/>
  <polyline points="353,131 353,132"/>
  <polyline points="353,144 353,146"/>
  <polyline points="354,131 354,132"/>
  <polyline points="354,144 354,147"/>
  <polyline points="355,142 355,147"/>
  <polyline points="356,131 356,132"/>
  <polyline points="356,140 356,148"/>
  <polyline points="357,129 357,131"/>
  <polyline points="357,135 357,141"/>
  <polyline points="358,127 358,130"/>
  <polyline points="358,134 358,139"/>
  <polyline points="359,126 359,129"/>
  <polyline points="359,134 359,135"/>
  <polyline points="360,126 360,127"/>
  <polyline points="360,134 360,135"/>
  <polyline points="361,125 361,126"/>
  <polyline points="361,134 361,136"/>
  <polyline points="362,124 362,125"/>
  <polyline points="362,135 362,137"/>
  <polyline points="363,124 363,125"/>
  <polyline points="363,136 363,137"/>
  <polyline points="364,124 364,125"/>
  <polyline points="364,136 364,137"/>
  <polyline points="365,123 365,125"/>
  <polyline points="365,135 365,137"/>
  <polyline points="366,123 366,124"/>
  <polyline points="366,136 366,138"/>
  <polyline points="367,122 367,124"/>
  <polyline points="367,138 367,140"/>
  <polyline points="368,121 368,123"/>
  <polyline points="368,139 368,140"/>
  <polyline points="369,120 369,122"/>
  <polyline points="369,139 369,140"/>
  <polyline points="370,119 370,121"/>
  <polyline points="370,139 370,140"/>
  <polyline points="371,119 371,120"/>
  <polyline points="371,137 371,139"/>
  <polyline points="372,118 372,119"/>
  <polyline points="372,136 372,138"/>
  <polyline points="373,118 373,119"/>
  <polyline points="373,136 373,138"/>
  <polyline points="374,118 374,119"/>
  <polyline points="374,136 374,138"/>
  <polyline points="375,118 375,119"/>
  <polyline points="375,136 375,138"/>
  <polyline points="376,118 376,119"/>
  <polyline points="376,134 376,137"/>
  <polyline points="377,118 377,122"/>
  <polyline points="377,131 377,134"/>
  <polyline points="378,121 378,123"/>
  <polyline points="378,128 378,131"/>
  <polyline points="379,123 379,129"/>
  <polyline points="380,124 380,127"/>
  <polyline points="329,185 330,184 330,188"/>
  <polyline points="331,178 331,179"/>
  <polyline points="331,183 331,184"/>
  <polyline points="331,188 331,189"/>
  <polyline points="332,177 332,183"/>
  <polyline points="332,189 332,190"/>
  <polyline points="333,177 333,182"/>
  <polyline points="333,190 333,191"/>
  <polyline points="334,176 334,177"/>
  <polyline points="334,190 334,191"/>
  <polyline points="335,176 335,177"/>
  <polyline points="335,190 335,191"/>
  <polyline points="336,190 336,191"/>
  <polyline points="337,177 337,178"/>
  <polyline points="337,190 337,191"/>
  <polyline points="338,178 338,179"/>
  <polyline points="338,190 338,191"/>
  <polyline points="339,179 339,181"/>
  <polyline points="339,190 339,191"/>
  <polyline points="340,180 340,182"/>
  <polyline points="340,190 340,191"/>
  <polyline points="341,182 341,185"/>
  <polyline points="341,190 341,191"/>
  <polyline points="342,184 342,190"/>
  <polyline points="343,185 343,189 344,188"/>
  <polyline points="330,36 331,38 332,36 332,38 333,36 333,38 334,37"/>
  <polyline points="347,177 347,179"/>
  <polyline points="348,176 348,179"/>
  <polyline points="349,176 349,179"/>
  <polyline points="350,176 350,179"/>
  <polyline points="351,176 351,178 352,177"/>
  <polyline points="378,160 378,162"/>
  <polyline points="379,159 379,162"/>
  <polyline points="380,159 380,162"/>
  <polyline points="381,159 381,162"/>
  <polyline points="382,38 382,40 383,38 383,40 384,39"/>
  <polyline points="382,56 382,59"/>
  <polyline points="383,56 383,62"/>
  <polyline points="384,55 384,56"/>
  <polyline points="384,60 384,64"/>
  <polyline points="385,54 385,55"/>
  <polyline points="385,63 385,66"/>
  <polyline points="386,53 386,55"/>
  <polyline points="386,65 386,67"/>
  <polyline points="387,36 387,60"/>
  <polyline points="387,68 387,70"/>
  <polyline points="388,36 388,60"/>
  <polyline points="388,70 388,72"/>
  <polyline points="389,36 389,60"/>
  <polyline points="389,71 389,72"/>
  <polyline points="390,36 390,60"/>
  <polyline points="390,69 390,72"/>
  <polyline points="391,52 391,54"/>
  <polyline points="391,69 391,72"/>
  <polyline points="392,53 393,53"/>
  <polyline points="394,67 394,68"/>
  <polyline points="395,67 395,68"/>
  <polyline points="396,54 396,55"/>
  <polyline points="396,66 396,68"/>
  <polyline points="397,54 397,55"/>
  <polyline points="397,66 397,67"/>
  <polyline points="398,55 398,60"/>
  <polyline points="398,65 398,66"/>
  <polyline points="399,57 399,65"/>
  <polyline points="400,61 400,65 401,64"/>
  <polyline points="384,168 385,167 385,170"/>
  <polyline points="386,166 386,171"/>
  <polyline points="387,164 387,167"/>
  <polyline points="387,172 387,174"/>
  <polyline points="388,164 388,165"/>
  <polyline points="388,173 388,174"/>
  <polyline points="389,164 389,165"/>
  <polyline points="390,174 390,175"/>
  <polyline points="391,164 391,165"/>
  <polyline points="391,174 391,175"/>
  <polyline points="392,163 392,164"/>
  <polyline points="392,174 392,175"/>
  <polyline points="393,163 393,164"/>
  <polyline points="393,173 393,174"/>
  <polyline points="394,162 394,163"/>
  <polyline points="394,173 394,174"/>
  <polyline points="395,162 395,163"/>
  <polyline points="395,173 395,174"/>
  <polyline points="396,162 396,163"/>
  <polyline points="397,162 397,163"/>
  <polyline points="397,172 397,173"/>
  <polyline points="398,161 398,162"/>
  <polyline points="398,172 398,173"/>
  <polyline points="399,161 399,162"/>
  <polyline points="399,171 399,173"/>
  <polyline points="400,161 400,162"/>
  <polyline points="400,171 400,172"/>
  <polyline points="401,162 401,163"/>
  <polyline points="401,171 401,172"/>
  <polyline points="402,171 402,172"/>
  <polyline points="403,163 403,164"/>
  <polyline points="403,170 403,171"/>
  <polyline points="404,164 404,165"/>
  <polyline points="404,170 404,171"/>
  <polyline points="405,164 405,165"/>
  <polyline points="405,170 405,171"/>
  <polyline points="406,164 406,165"/>
  <polyline points="406,170 406,171"/>
  <polyline points="407,164 407,167"/>
  <polyline points="407,170 407,171"/>
  <polyline points="408,165 408,171"/>
  <polyline points="409,166 409,170"/>
  <polyline points="387,76 387,80"/>
  <polyline points="388,75 388,76"/>
  <polyline points="388,80 388,81"/>
  <polyline points="389,75 389,82"/>
  <polyline points="390,76 390,83"/>
  <polyline points="391,79 391,83 392,82"/>
  <polyline points="393,152 393,154"/>
  <polyline points="394,150 394,156"/>
  <polyline points="395,149 395,157"/>
  <polyline points="396,149 396,150"/>
  <polyline points="396,156 396,157"/>
  <polyline points="397,149 397,150"/>
  <polyline points="397,157 397,158"/>
  <polyline points="398,149 398,150"/>
  <polyline points="399,149 399,150"/>
  <polyline points="399,158 399,159"/>
  <polyline points="400,149 400,152"/>
  <polyline points="400,158 400,159"/>
  <polyline points="401,150 401,153"/>
  <polyline points="401,158 401,159"/>
  <polyline points="402,153 402,159"/>
  <polyline points="403,155 403,158"/>
  <polyline points="393,189 393,191"/>
  <polyline points="394,188 394,191"/>
  <polyline points="395,188 395,191"/>
  <polyline points="396,188 396,191"/>
  <polyline points="397,188 397,190"/>
  <polyline points="398,187 398,190"/>
  <polyline points="399,187 399,190 400,189"/>
  <polyline points="401,178 401,181"/>
  <polyline points="402,178 403,182"/>
  <polyline points="403,36 403,60"/>
  <polyline points="404,36 404,60"/>
  <polyline points="405,36 405,60"/>
  <polyline points="406,36 406,60"/>
  <polyline points="407,36 407,40"/>
  <polyline points="407,50 407,53"/>
  <polyline points="408,50 409,53 410,51 410,54"/>
  <polyline points="411,51 411,55"/>
  <polyline points="412,52 412,55"/>
  <polyline points="413,52 413,55"/>
  <polyline points="406,139 406,141"/>
  <polyline points="407,138 407,143"/>
  <polyline points="408,138 408,139"/>
  <polyline points="408,142 408,145"/>
  <polyline points="409,137 409,138"/>
  <polyline points="409,144 409,145"/>
  <polyline points="410,137 410,138"/>
  <polyline points="410,145 411,146"/>
  <polyline points="412,146 412,147"/>
  <polyline points="413,138 413,139"/>
  <polyline points="413,146 413,147"/>
  <polyline points="414,138 414,139"/>
  <polyline points="414,147 414,149"/>
  <polyline points="415,138 415,139"/>
  <polyline points="415,148 415,150"/>
  <polyline points="416,138 416,139"/>
  <polyline points="416,149 416,152"/>
  <polyline points="417,137 417,138"/>
  <polyline points="417,150 417,153"/>
  <polyline points="418,137 418,138"/>
  <polyline points="418,153 418,154"/>
  <polyline points="419,138 419,140"/>
  <polyline points="419,144 419,145"/>
  <polyline points="419,153 419,154"/>
  <polyline points="420,139 420,145"/>
  <polyline points="421,141 421,145"/>
  <polyline points="422,144 422,145"/>
  <polyline points="423,154 423,155"/>
  <polyline points="424,145 424,146"/>
  <polyline points="424,153 424,155"/>
  <polyline points="425,153 425,154"/>
  <polyline points="426,145 426,146"/>
  <polyline points="426,153 426,154"/>
  <polyline points="427,144 427,145"/>
  <polyline points="427,153 427,154"/>
  <polyline points="428,131 428,133"/>
  <polyline points="428,144 428,145"/>
  <polyline points="428,153 428,154"/>
  <polyline points="429,130 429,133"/>
  <polyline points="429,137 429,140"/>
  <polyline points="429,143 429,144"/>
  <polyline points="429,153 429,154"/>
  <polyline points="430,128 430,130"/>
  <polyline points="430,133 430,144"/>
  <polyline points="431,128 431,129"/>
  <polyline points="431,134 431,137"/>
  <polyline points="431,141 431,143"/>
  <polyline points="431,148 431,149"/>
  <polyline points="431,154 431,155"/>
  <polyline points="432,127 432,129"/>
  <polyline points="432,146 432,151"/>
  <polyline points="432,154 432,155"/>
  <polyline points="433,127 433,128"/>
  <polyline points="433,146 433,147"/>
  <polyline points="433,150 433,154"/>
  <polyline points="434,127 434,128"/>
  <polyline points="434,145 434,147"/>
  <polyline points="434,150 434,151"/>
  <polyline points="435,127 435,128"/>
  <polyline points="435,145 435,146"/>
  <polyline points="436,127 436,128"/>
  <polyline points="436,146 436,147"/>
  <polyline points="436,151 436,154"/>
  <polyline points="437,121 437,122"/>
  <polyline points="437,127 437,130"/>
  <polyline points="437,146 437,147"/>
  <polyline points="437,152 437,154"/>
  <polyline points="438,121 438,123"/>
  <polyline points="438,128 438,131"/>
  <polyline points="438,147 438,148"/>
  <polyline points="439,121 439,123"/>
  <polyline points="439,131 439,132"/>
  <polyline points="439,147 439,148"/>
  <polyline points="440,116 440,118"/>
  <polyline points="440,121 440,123"/>
  <polyline points="440,131 440,133"/>
  <polyline points="440,148 440,149"/>
  <polyline points="441,115 441,124"/>
  <polyline points="441,132 441,134"/>
  <polyline points="441,148 441,149"/>
  <polyline points="442,114 442,116"/>
  <polyline points="442,119 442,126"/>
  <polyline points="442,133 442,135"/>
  <polyline points="442,146 442,149"/>
  <polyline points="443,113 443,115"/>
  <polyline points="443,125 443,129"/>
  <polyline points="443,134 443,136"/>
  <polyline points="443,141 443,149"/>
  <polyline points="444,113 444,114"/>
  <polyline points="444,129 444,133"/>
  <polyline points="444,136 444,143"/>
  <polyline points="445,113 445,114"/>
  <polyline points="445,133 445,134"/>
  <polyline points="446,112 446,113"/>
  <polyline points="446,134 446,135"/>
  <polyline points="446,142 446,145"/>
  <polyline points="447,112 447,113"/>
  <polyline points="447,134 447,136"/>
  <polyline points="447,140 447,150"/>
  <polyline points="448,112 448,113"/>
  <polyline points="448,135 448,141"/>
  <polyline points="448,146 448,150"/>
  <polyline points="449,112 449,113"/>
  <polyline points="449,136 449,139"/>
  <polyline points="449,149 449,150"/>
  <polyline points="450,112 450,115"/>
  <polyline points="450,149 450,153"/>
  <polyline points="451,113 451,115"/>
  <polyline points="451,146 451,153"/>
  <polyline points="452,114 452,115"/>
  <polyline points="452,146 452,152"/>
  <polyline points="453,118 453,120"/>
  <polyline points="453,146 453,147"/>
  <polyline points="454,114 454,120"/>
  <polyline points="454,146 454,148"/>
  <polyline points="455,115 455,121"/>
  <polyline points="455,147 455,148"/>
  <polyline points="456,120 456,121"/>
  <polyline points="457,120 457,123"/>
  <polyline points="458,121 458,124"/>
  <polyline points="458,147 458,148"/>
  <polyline points="459,123 459,124"/>
  <polyline points="459,147 459,148"/>
  <polyline points="460,122 460,123"/>
  <polyline points="460,145 460,147"/>
  <polyline points="461,122 461,123"/>
  <polyline points="461,135 461,138"/>
  <polyline points="461,142 461,145"/>
  <polyline points="462,121 462,123"/>
  <polyline points="462,135 462,144"/>
  <polyline points="463,120 463,122"/>
  <polyline points="463,134 463,135"/>
  <polyline points="463,138 463,142"/>
  <polyline points="464,120 464,121"/>
  <polyline points="464,133 464,142"/>
  <polyline points="465,119 465,124"/>
  <polyline points="465,131 465,138"/>
  <polyline points="466,116 466,132"/>
  <polyline points="466,136 466,137"/>
  <polyline points="467,116 467,130"/>
  <polyline points="468,116 468,119"/>
  <polyline points="468,125 468,126"/>
  <polyline points="469,117 469,119"/>
  <polyline points="406,182 407,181 407,184"/>
  <polyline points="408,180 408,186"/>
  <polyline points="409,181 409,182"/>
  <polyline points="409,186 409,188"/>
  <polyline points="410,181 410,182"/>
  <polyline points="410,187 410,189"/>
  <polyline points="411,182 411,183"/>
  <polyline points="411,187 411,189"/>
  <polyline points="412,182 412,183"/>
  <polyline points="412,187 412,189"/>
  <polyline points="413,183 413,189"/>
  <polyline points="414,184 414,188"/>
  <polyline points="415,185 415,187"/>
  <polyline points="416,358 416,360"/>
  <polyline points="416,363 416,369"/>
  <polyline points="417,356 417,370"/>
  <polyline points="418,352 418,356"/>
  <polyline points="418,368 418,370"/>
  <polyline points="419,351 419,352"/>
  <polyline points="420,348 420,351"/>
  <polyline points="420,366 420,367"/>
  <polyline points="421,341 421,350"/>
  <polyline points="421,364 421,366"/>
  <polyline points="422,339 422,347"/>
  <polyline points="422,362 422,365"/>
  <polyline points="423,337 423,339"/>
  <polyline points="423,360 423,363"/>
  <polyline points="424,334 424,337"/>
  <polyline points="424,358 424,360"/>
  <polyline points="425,333 425,335"/>
  <polyline points="425,355 425,359"/>
  <polyline points="426,330 426,334"/>
  <polyline points="426,353 426,357"/>
  <polyline points="427,329 427,333"/>
  <polyline points="427,351 427,354"/>
  <polyline points="428,329 428,330"/>
  <polyline points="428,350 428,352"/>
  <polyline points="429,326 429,329"/>
  <polyline points="429,348 429,351"/>
  <polyline points="430,323 430,326"/>
  <polyline points="430,343 430,349"/>
  <polyline points="431,322 431,325"/>
  <polyline points="431,338 431,346"/>
  <polyline points="432,321 432,323"/>
  <polyline points="432,336 432,340"/>
  <polyline points="433,319 433,321"/>
  <polyline points="433,335 433,337"/>
  <polyline points="434,318 434,320"/>
  <polyline points="434,334 434,335"/>
  <polyline points="435,316 435,319"/>
  <polyline points="435,325 435,330"/>
  <polyline points="435,333 435,334"/>
  <polyline points="436,323 436,333"/>
  <polyline points="437,320 437,324"/>
  <polyline points="438,319 438,321"/>
  <polyline points="439,318 439,319"/>
  <polyline points="440,314 440,318"/>
  <polyline points="441,313 441,317"/>
  <polyline points="442,312 442,314"/>
  <polyline points="443,311 443,313"/>
  <polyline points="444,306 444,311"/>
  <polyline points="445,303 445,306"/>
  <polyline points="446,301 446,304"/>
  <polyline points="447,298 447,302"/>
  <polyline points="448,297 448,300"/>
  <polyline points="449,296 450,297 453,294 455,295 457,292 457,294"/>
  <polyline points="458,287 458,293"/>
  <polyline points="459,287 459,293"/>
  <polyline points="460,291 460,292"/>
  <polyline points="461,286 462,287 465,284 473,284 476,287 476,289 477,288"/>
  <polyline points="422,36 422,58"/>
  <polyline points="423,36 423,60"/>
  <polyline points="424,36 424,60"/>
  <polyline points="425,36 425,60"/>
  <polyline points="426,36 426,62 428,60 428,62"/>
  <polyline points="430,38 431,43"/>
  <polyline points="432,40 433,44"/>
  <polyline points="434,38 434,46"/>
  <polyline points="435,41 435,45"/>
  <polyline points="436,41 436,45"/>
  <polyline points="437,42 437,45"/>
  <polyline points="438,42 439,45"/>
  <polyline points="434,262 435,263"/>
  <polyline points="435,313 435,314"/>
  <polyline points="436,262 436,263"/>
  <polyline points="436,311 436,313"/>
  <polyline points="437,262 437,263"/>
  <polyline points="437,307 437,312"/>
  <polyline points="438,306 438,310"/>
  <polyline points="439,262 439,263"/>
  <polyline points="439,303 439,306"/>
  <polyline points="440,263 440,265"/>
  <polyline points="440,269 440,271"/>
  <polyline points="440,298 440,304"/>
  <polyline points="441,264 441,272"/>
  <polyline points="441,281 441,283"/>
  <polyline points="441,291 441,301"/>
  <polyline points="442,265 442,268"/>
  <polyline points="442,271 442,272"/>
  <polyline points="442,281 442,283"/>
  <polyline points="442,289 442,297"/>
  <polyline points="443,271 443,272"/>
  <polyline points="443,280 443,284"/>
  <polyline points="443,287 443,290"/>
  <polyline points="444,283 444,287"/>
  <polyline points="445,271 445,275"/>
  <polyline points="446,273 446,279"/>
  <polyline points="447,276 447,279"/>
  <polyline points="436,85 436,89"/>
  <polyline points="437,84 437,91"/>
  <polyline points="438,83 438,85"/>
  <polyline points="438,90 438,92"/>
  <polyline points="439,83 439,85"/>
  <polyline points="439,92 439,95"/>
  <polyline points="440,84 440,85"/>
  <polyline points="440,94 440,96"/>
  <polyline points="441,84 441,85"/>
  <polyline points="441,95 441,96"/>
  <polyline points="442,84 442,85"/>
  <polyline points="442,96 442,97"/>
  <polyline points="443,84 443,85"/>
  <polyline points="443,96 443,97"/>
  <polyline points="444,85 444,86"/>
  <polyline points="444,96 444,97"/>
  <polyline points="445,85 445,86"/>
  <polyline points="445,96 445,97"/>
  <polyline points="446,85 446,87"/>
  <polyline points="446,96 446,97"/>
  <polyline points="447,86 447,88"/>
  <polyline points="447,96 447,97"/>
  <polyline points="448,87 448,88"/>
  <polyline points="448,95 448,96"/>
  <polyline points="449,87 449,89"/>
  <polyline points="449,95 449,96"/>
  <polyline points="450,89 450,96"/>
  <polyline points="451,91 451,95"/>
  <polyline points="436,190 437,193"/>
  <polyline points="438,189 438,194"/>
  <polyline points="439,189 439,194"/>
  <polyline points="440,190 440,195"/>
  <polyline points="441,190 441,191"/>
  <polyline points="441,194 441,195"/>
  <polyline points="442,190 442,191"/>
  <polyline points="442,194 442,197"/>
  <polyline points="443,189 443,190"/>
  <polyline points="443,195 443,197"/>
  <polyline points="444,188 444,189"/>
  <polyline points="445,187 445,188"/>
  <polyline points="446,186 446,187"/>
  <polyline points="447,186 447,187"/>
  <polyline points="448,185 448,186"/>
  <polyline points="448,198 449,198"/>
  <polyline points="450,184 450,185"/>
  <polyline points="450,196 450,197"/>
  <polyline points="451,183 451,184"/>
  <polyline points="451,196 451,197"/>
  <polyline points="452,183 452,184"/>
  <polyline points="452,195 452,196"/>
  <polyline points="453,183 453,184"/>
  <polyline points="453,193 453,196"/>
  <polyline points="454,184 454,185"/>
  <polyline points="454,192 454,193"/>
  <polyline points="455,191 455,192"/>
  <polyline points="456,185 456,186"/>
  <polyline points="456,191 456,192"/>
  <polyline points="457,185 457,192"/>
  <polyline points="458,186 458,191 459,190"/>
  <polyline points="450,46 450,49"/>
  <polyline points="451,46 451,49"/>
  <polyline points="451,55 451,56"/>
  <polyline points="452,47 452,48"/>
  <polyline points="452,54 452,57"/>
  <polyline points="453,54 453,58"/>
  <polyline points="454,47 454,48"/>
  <polyline points="454,54 454,55"/>
  <polyline points="455,46 455,48"/>
  <polyline points="455,54 455,55"/>
  <polyline points="455,58 455,59"/>
  <polyline points="456,47 456,48"/>
  <polyline points="456,54 456,55"/>
  <polyline points="456,59 456,60"/>
  <polyline points="457,46 457,47"/>
  <polyline points="457,54 457,55"/>
  <polyline points="457,60 457,61"/>
  <polyline points="458,45 458,48"/>
  <polyline points="458,54 458,55"/>
  <polyline points="458,60 458,62"/>
  <polyline points="459,46 459,48"/>
  <polyline points="459,62 459,63"/>
  <polyline points="460,45 460,49"/>
  <polyline points="460,63 460,64"/>
  <polyline points="461,45 461,53"/>
  <polyline points="461,64 461,65"/>
  <polyline points="462,44 462,45"/>
  <polyline points="462,49 462,52"/>
  <polyline points="462,64 462,66"/>
  <polyline points="463,44 463,45"/>
  <polyline points="463,49 463,52"/>
  <polyline points="463,65 463,66"/>
  <polyline points="464,44 464,45"/>
  <polyline points="464,49 464,52"/>
  <polyline points="464,66 464,67"/>
  <polyline points="465,44 465,45"/>
  <polyline points="465,49 465,52"/>
  <polyline points="465,66 465,68"/>
  <polyline points="466,45 466,50"/>
  <polyline points="466,67 466,69"/>
  <polyline points="467,45 467,49"/>
  <polyline points="467,68 467,69"/>
  <polyline points="468,46 468,50"/>
  <polyline points="469,50 469,51"/>
  <polyline points="469,62 469,68"/>
  <polyline points="470,50 470,52"/>
  <polyline points="470,55 470,58"/>
  <polyline points="470,61 470,68"/>
  <polyline points="471,51 471,55"/>
  <polyline points="471,59 471,62"/>
  <polyline points="472,52 472,55"/>
  <polyline points="472,60 472,61"/>
  <polyline points="473,52 474,54"/>
  <polyline points="451,199 451,202"/>
  <polyline points="452,199 452,202"/>
  <polyline points="453,199 453,200"/>
  <polyline points="454,203 454,204"/>
  <polyline points="455,199 455,201"/>
  <polyline points="455,204 455,205"/>
  <polyline points="456,199 456,201"/>
  <polyline points="456,205 456,206"/>
  <polyline points="457,199 457,201"/>
  <polyline points="457,205 457,206"/>
  <polyline points="458,199 458,206"/>
  <polyline points="459,200 459,206"/>
  <polyline points="454,214 454,215"/>
  <polyline points="455,211 455,213 456,211 456,213 457,212"/>
  <polyline points="460,211 460,213 461,211 462,213"/>
  <polyline points="464,172 466,172 466,174 467,173"/>
  <polyline points="468,38 471,40 471,42 472,41 473,43 475,43 476,46 480,49 481,57"/>
  <polyline points="482,54 482,62"/>
  <polyline points="483,57 483,63 486,62 489,65 490,64 492,68 495,67"/>
  <polyline points="468,163 468,164"/>
  <polyline points="469,161 469,165"/>
  <polyline points="470,160 470,164"/>
  <polyline points="472,141 472,143"/>
  <polyline points="473,140 473,143"/>
  <polyline points="474,138 474,144"/>
  <polyline points="475,136 475,143"/>
  <polyline points="476,135 476,142"/>
  <polyline points="477,136 477,140"/>
  <polyline points="478,137 478,138"/>
  <polyline points="472,162 472,164"/>
  <polyline points="473,161 473,164"/>
  <polyline points="474,161 475,163"/>
  <polyline points="472,356 472,363"/>
  <polyline points="473,353 473,364"/>
  <polyline points="474,352 474,358"/>
  <polyline points="474,364 474,365"/>
  <polyline points="475,353 475,356"/>
  <polyline points="475,364 475,366"/>
  <polyline points="476,291 476,294"/>
  <polyline points="476,350 476,353"/>
  <polyline points="476,363 476,365"/>
  <polyline points="477,292 477,296"/>
  <polyline points="477,299 477,303"/>
  <polyline points="477,350 477,352"/>
  <polyline points="477,364 477,368"/>
  <polyline points="478,296 478,304"/>
  <polyline points="478,350 478,351"/>
  <polyline points="478,365 478,370"/>
  <polyline points="478,378 478,381"/>
  <polyline points="479,296 479,298"/>
  <polyline points="479,304 479,305"/>
  <polyline points="479,349 479,350"/>
  <polyline points="479,368 479,372"/>
  <polyline points="479,377 479,381"/>
  <polyline points="480,304 480,305"/>
  <polyline points="480,349 480,350"/>
  <polyline points="480,372 480,373"/>
  <polyline points="480,376 480,377"/>
  <polyline points="481,305 481,311"/>
  <polyline points="481,349 481,350"/>
  <polyline points="481,373 481,377"/>
  <polyline points="482,311 482,314"/>
  <polyline points="482,348 482,349"/>
  <polyline points="482,374 482,378"/>
  <polyline points="483,312 483,317"/>
  <polyline points="483,346 483,348"/>
  <polyline points="483,375 483,379"/>
  <polyline points="484,315 484,318"/>
  <polyline points="484,345 484,347"/>
  <polyline points="484,375 484,379"/>
  <polyline points="485,317 485,319"/>
  <polyline points="485,343 485,345"/>
  <polyline points="485,377 485,378"/>
  <polyline points="486,319 486,320"/>
  <polyline points="486,342 486,343"/>
  <polyline points="487,319 487,323"/>
  <polyline points="487,337 487,342"/>
  <polyline points="488,318 488,324"/>
  <polyline points="488,334 488,341"/>
  <polyline points="489,318 489,320"/>
  <polyline points="489,323 489,325"/>
  <polyline points="489,333 489,336"/>
  <polyline points="490,325 490,326"/>
  <polyline points="490,331 490,332"/>
  <polyline points="491,327 491,331"/>
  <polyline points="477,70 477,72"/>
  <polyline points="478,69 478,74"/>
  <polyline points="479,68 479,69"/>
  <polyline points="479,73 479,75"/>
  <polyline points="480,75 480,77"/>
  <polyline points="481,76 481,77"/>
  <polyline points="482,69 482,70"/>
  <polyline points="482,76 482,77"/>
  <polyline points="483,69 483,70"/>
  <polyline points="483,76 483,77"/>
  <polyline points="484,69 484,70"/>
  <polyline points="484,76 484,77"/>
  <polyline points="485,69 485,71"/>
  <polyline points="485,76 485,77"/>
  <polyline points="486,70 486,76"/>
  <polyline points="487,71 487,75"/>
  <polyline points="477,167 478,166 478,169"/>
  <polyline points="479,166 479,170"/>
  <polyline points="480,166 480,169"/>
  <polyline points="481,165 481,168"/>
  <polyline points="482,165 482,167 483,166"/>
  <polyline points="483,185 484,184 484,186"/>
  <polyline points="485,183 485,186"/>
  <polyline points="486,183 486,186"/>
  <polyline points="487,182 487,186"/>
  <polyline points="488,182 488,186"/>
  <polyline points="489,185 489,186"/>
  <polyline points="490,181 490,182"/>
  <polyline points="490,185 490,186"/>
  <polyline points="491,180 491,186"/>
  <polyline points="492,181 492,185"/>
  <polyline points="493,181 493,184"/>
  <polyline points="489,347 489,348"/>
  <polyline points="490,344 490,349"/>
  <polyline points="490,353 490,356"/>
  <polyline points="491,347 491,356"/>
  <polyline points="492,349 492,355"/>
  <polyline points="493,349 493,350"/>
  <polyline points="493,353 493,354"/>
  <polyline points="495,84 495,86 496,84 496,87 497,86"/>
  <polyline points="495,175 495,176"/>
  <polyline points="496,173 496,176"/>
  <polyline points="497,171 497,176"/>
  <polyline points="498,169 498,172"/>
  <polyline points="498,175 498,176"/>
  <polyline points="499,168 499,170"/>
  <polyline points="499,175 499,176"/>
  <polyline points="500,167 500,169"/>
  <polyline points="500,174 500,176"/>
  <polyline points="501,167 501,168"/>
  <polyline points="501,173 501,175"/>
  <polyline points="502,167 502,168"/>
  <polyline points="502,173 502,174"/>
  <polyline points="503,167 503,174"/>
  <polyline points="504,168 504,174"/>
  <polyline points="505,170 505,174"/>
  <polyline points="497,66 497,67"/>
  <polyline points="498,50 498,56"/>
  <polyline points="499,49 499,57"/>
  <polyline points="500,56 500,57"/>
  <polyline points="500,65 500,66"/>
  <polyline points="501,56 501,59"/>
  <polyline points="501,65 501,66"/>
  <polyline points="502,43 502,45"/>
  <polyline points="502,59 502,61"/>
  <polyline points="502,65 502,66"/>
  <polyline points="503,42 503,47"/>
  <polyline points="503,60 503,65"/>
  <polyline points="504,46 504,47"/>
  <polyline points="504,61 504,65"/>
  <polyline points="505,60 505,64"/>
  <polyline points="506,60 506,63"/>
  <polyline points="507,59 507,62"/>
  <polyline points="508,60 508,61"/>
  <polyline points="509,41 510,42 514,38 514,40 515,39"/>
  <polyline points="498,375 498,377"/>
  <polyline points="499,375 499,381"/>
  <polyline points="500,376 500,381"/>
  <polyline points="501,376 501,381"/>
  <polyline points="502,376 502,378"/>
  <polyline points="510,74 510,76 511,74 511,77 512,76"/>
  <polyline points="511,221 512,223 514,221 514,224"/>
  <polyline points="515,221 515,225"/>
  <polyline points="516,221 517,224"/>
  <polyline points="518,220 519,219 519,221 520,219 520,221 521,219 521,221"/>
  </g>
</svg>